<?xml version="1.0" encoding="UTF-8"?>
<!DOCTYPE svg PUBLIC "-//W3C//DTD SVG 1.1//EN" "http://www.w3.org/Graphics/SVG/1.1/DTD/svg11.dtd">
<!-- Creator: CorelDRAW 2021 (64-Bit) -->
<svg xmlns="http://www.w3.org/2000/svg" xml:space="preserve" width="60in" height="60in" version="1.1" style="shape-rendering:geometricPrecision; text-rendering:geometricPrecision; image-rendering:optimizeQuality; fill-rule:evenodd; clip-rule:evenodd"
viewBox="0 0 60000 60000"
 xmlns:xlink="http://www.w3.org/1999/xlink"
 xmlns:xodm="http://www.corel.com/coreldraw/odm/2003">
 <defs>
  <style type="text/css">
   <![CDATA[
    .fil49 {fill:#ED3237}
    .fil7 {fill:#292627}
    .fil48 {fill:#FEFEFE;fill-rule:nonzero}
    .fil50 {fill:#373435;fill-rule:nonzero}
    .fil46 {fill:url(#id0)}
    .fil37 {fill:url(#id1)}
    .fil1 {fill:url(#id2)}
    .fil22 {fill:url(#id3)}
    .fil2 {fill:url(#id4)}
    .fil26 {fill:url(#id5)}
    .fil47 {fill:url(#id6)}
    .fil33 {fill:url(#id7)}
    .fil10 {fill:url(#id8)}
    .fil29 {fill:url(#id9)}
    .fil3 {fill:url(#id10)}
    .fil13 {fill:url(#id11)}
    .fil40 {fill:url(#id12)}
    .fil24 {fill:url(#id13)}
    .fil31 {fill:url(#id14)}
    .fil0 {fill:url(#id15)}
    .fil9 {fill:url(#id16)}
    .fil12 {fill:url(#id17)}
    .fil45 {fill:url(#id18)}
    .fil5 {fill:url(#id19)}
    .fil11 {fill:url(#id20)}
    .fil27 {fill:url(#id21)}
    .fil6 {fill:url(#id22)}
    .fil42 {fill:url(#id23)}
    .fil18 {fill:url(#id24)}
    .fil41 {fill:url(#id25)}
    .fil32 {fill:url(#id26)}
    .fil14 {fill:url(#id27)}
    .fil36 {fill:url(#id28)}
    .fil19 {fill:url(#id29)}
    .fil4 {fill:url(#id30)}
    .fil35 {fill:url(#id31)}
    .fil21 {fill:url(#id32)}
    .fil16 {fill:url(#id33)}
    .fil8 {fill:url(#id34)}
    .fil17 {fill:url(#id35)}
    .fil28 {fill:url(#id36)}
    .fil15 {fill:url(#id37)}
    .fil39 {fill:url(#id38)}
    .fil30 {fill:url(#id39)}
    .fil43 {fill:url(#id40)}
    .fil44 {fill:url(#id41)}
    .fil38 {fill:url(#id42)}
    .fil34 {fill:url(#id43)}
    .fil25 {fill:url(#id44)}
    .fil23 {fill:url(#id45)}
    .fil20 {fill:url(#id46)}
   ]]>
  </style>
  <linearGradient id="id0" gradientUnits="userSpaceOnUse" x1="42195.33" y1="7657.27" x2="18387.69" y2="6206.07">
   <stop offset="0" style="stop-opacity:1; stop-color:#D2AE6D"/>
   <stop offset="0.180392" style="stop-opacity:1; stop-color:#F2DD98"/>
   <stop offset="0.470588" style="stop-opacity:1; stop-color:#FFF8AF"/>
   <stop offset="0.780392" style="stop-opacity:1; stop-color:#F2DD98"/>
   <stop offset="1" style="stop-opacity:1; stop-color:#D2AE6D"/>
  </linearGradient>
  <linearGradient id="id1" gradientUnits="userSpaceOnUse" xlink:href="#id0" x1="40220.01" y1="21542.89" x2="39125.1" y2="21022.02">
  </linearGradient>
  <linearGradient id="id2" gradientUnits="userSpaceOnUse" xlink:href="#id0" x1="37672.72" y1="44472.46" x2="34802.52" y2="44303.94">
  </linearGradient>
  <linearGradient id="id3" gradientUnits="userSpaceOnUse" xlink:href="#id0" x1="21590.44" y1="19868.54" x2="22443.5" y2="19372.73">
  </linearGradient>
  <linearGradient id="id4" gradientUnits="userSpaceOnUse" xlink:href="#id0" x1="37229.89" y1="45356.13" x2="36038.74" y2="45286.13">
  </linearGradient>
  <linearGradient id="id5" gradientUnits="userSpaceOnUse" xlink:href="#id0" x1="23545.2" y1="17699.28" x2="25009.76" y2="17144.7">
  </linearGradient>
  <linearGradient id="id6" gradientUnits="userSpaceOnUse" xlink:href="#id0" x1="34539.01" y1="17650.33" x2="25995.9" y2="17127.39">
  </linearGradient>
  <linearGradient id="id7" gradientUnits="userSpaceOnUse" xlink:href="#id0" x1="39259.49" y1="26359.61" x2="37621.7" y2="25800.18">
  </linearGradient>
  <linearGradient id="id8" gradientUnits="userSpaceOnUse" xlink:href="#id0" x1="24665.45" y1="31842.59" x2="27452.5" y2="30984.13">
  </linearGradient>
  <linearGradient id="id9" gradientUnits="userSpaceOnUse" xlink:href="#id0" x1="36358.34" y1="30093.12" x2="33507.93" y2="29215.06">
  </linearGradient>
  <linearGradient id="id10" gradientUnits="userSpaceOnUse" xlink:href="#id0" x1="51218.87" y1="29463.42" x2="10611.31" y2="26977.89">
  </linearGradient>
  <linearGradient id="id11" gradientUnits="userSpaceOnUse" xlink:href="#id0" x1="24142.22" y1="29606.81" x2="25254.44" y2="29000.36">
  </linearGradient>
  <linearGradient id="id12" gradientUnits="userSpaceOnUse" xlink:href="#id0" x1="39214.83" y1="20029.72" x2="37307.02" y2="19239.66">
  </linearGradient>
  <linearGradient id="id13" gradientUnits="userSpaceOnUse" xlink:href="#id0" x1="22587.03" y1="18443.37" x2="23242.84" y2="18056.89">
  </linearGradient>
  <linearGradient id="id14" gradientUnits="userSpaceOnUse" xlink:href="#id0" x1="38103.52" y1="28785.04" x2="35774.26" y2="28115.52">
  </linearGradient>
  <linearGradient id="id15" gradientUnits="userSpaceOnUse" xlink:href="#id0" x1="25697.7" y1="44457.37" x2="19724.86" y2="44092.01">
  </linearGradient>
  <linearGradient id="id16" gradientUnits="userSpaceOnUse" xlink:href="#id0" x1="28022.25" y1="31429.53" x2="30050.67" y2="30713.35">
  </linearGradient>
  <linearGradient id="id17" gradientUnits="userSpaceOnUse" xlink:href="#id0" x1="22761.51" y1="30217.4" x2="25090.7" y2="29547.75">
  </linearGradient>
  <linearGradient id="id18" gradientUnits="userSpaceOnUse" xlink:href="#id0" x1="37059.98" y1="16379.01" x2="35595.35" y2="15824.56">
  </linearGradient>
  <linearGradient id="id19" gradientUnits="userSpaceOnUse" xlink:href="#id0" x1="50208.09" y1="29401.45" x2="31088.25" y2="28231.14">
  </linearGradient>
  <linearGradient id="id20" gradientUnits="userSpaceOnUse" xlink:href="#id0" x1="25963.7" y1="30696.45" x2="27476.87" y2="29990.44">
  </linearGradient>
  <linearGradient id="id21" gradientUnits="userSpaceOnUse" xlink:href="#id0" x1="34064.6" y1="30866.08" x2="30730.3" y2="29969.88">
  </linearGradient>
  <linearGradient id="id22" gradientUnits="userSpaceOnUse" x1="40710.28" y1="49450.78" x2="59466.82" y2="9634.74">
   <stop offset="0" style="stop-opacity:1; stop-color:#D2AE6D"/>
   <stop offset="0.278431" style="stop-opacity:1; stop-color:#F2DD98"/>
   <stop offset="0.470588" style="stop-opacity:1; stop-color:#FFF8AF"/>
   <stop offset="0.690196" style="stop-opacity:1; stop-color:#F2DD98"/>
   <stop offset="0.870588" style="stop-opacity:1; stop-color:#CC8F43"/>
   <stop offset="1" style="stop-opacity:1; stop-color:#D2AE6D"/>
  </linearGradient>
  <linearGradient id="id23" gradientUnits="userSpaceOnUse" xlink:href="#id0" x1="38576.75" y1="18573.81" x2="36633.2" y2="17865.17">
  </linearGradient>
  <linearGradient id="id24" gradientUnits="userSpaceOnUse" xlink:href="#id0" x1="20597.66" y1="23730.28" x2="21659.26" y2="23225.06">
  </linearGradient>
  <linearGradient id="id25" gradientUnits="userSpaceOnUse" xlink:href="#id0" x1="39069.3" y1="17657.39" x2="38216.44" y2="17161.59">
  </linearGradient>
  <linearGradient id="id26" gradientUnits="userSpaceOnUse" xlink:href="#id0" x1="36711.17" y1="26923.13" x2="35599.09" y2="26316.68">
  </linearGradient>
  <linearGradient id="id27" gradientUnits="userSpaceOnUse" xlink:href="#id0" x1="21540.94" y1="27934.39" x2="23178.8" y2="27375.17">
  </linearGradient>
  <linearGradient id="id28" gradientUnits="userSpaceOnUse" xlink:href="#id0" x1="38734.68" y1="23497.92" x2="37683.67" y2="22865.79">
  </linearGradient>
  <linearGradient id="id29" gradientUnits="userSpaceOnUse" xlink:href="#id0" x1="21748.93" y1="24117.24" x2="23327.8" y2="23381.53">
  </linearGradient>
  <linearGradient id="id30" gradientUnits="userSpaceOnUse" xlink:href="#id0" x1="30103.98" y1="40775.57" x2="10430.74" y2="39565.11">
  </linearGradient>
  <linearGradient id="id31" gradientUnits="userSpaceOnUse" xlink:href="#id0" x1="40090.95" y1="23972.61" x2="38700.89" y2="23403.27">
  </linearGradient>
  <linearGradient id="id32" gradientUnits="userSpaceOnUse" xlink:href="#id0" x1="21728.57" y1="22277.56" x2="23636.11" y2="21487.84">
  </linearGradient>
  <linearGradient id="id33" gradientUnits="userSpaceOnUse" xlink:href="#id0" x1="20787.43" y1="26045.55" x2="22177.57" y2="25476.22">
  </linearGradient>
  <linearGradient id="id34" gradientUnits="userSpaceOnUse" xlink:href="#id0" x1="26754.8" y1="32788.02" x2="30110.49" y2="31940.77">
  </linearGradient>
  <linearGradient id="id35" gradientUnits="userSpaceOnUse" xlink:href="#id0" x1="21995.68" y1="26028.17" x2="23046.63" y2="25396.04">
  </linearGradient>
  <linearGradient id="id36" gradientUnits="userSpaceOnUse" xlink:href="#id0" x1="32949.47" y1="28319.07" x2="30951.09" y2="27578.59">
  </linearGradient>
  <linearGradient id="id37" gradientUnits="userSpaceOnUse" xlink:href="#id0" x1="22855.53" y1="27924.77" x2="23821.66" y2="27345.61">
  </linearGradient>
  <linearGradient id="id38" gradientUnits="userSpaceOnUse" xlink:href="#id0" x1="39912.11" y1="19617.62" x2="38974.24" y2="19113.09">
  </linearGradient>
  <linearGradient id="id39" gradientUnits="userSpaceOnUse" xlink:href="#id0" x1="35101.83" y1="27763.93" x2="33636.3" y2="27080.15">
  </linearGradient>
  <linearGradient id="id40" gradientUnits="userSpaceOnUse" xlink:href="#id0" x1="37920.25" y1="16719.1" x2="37264.16" y2="16332.69">
  </linearGradient>
  <linearGradient id="id41" gradientUnits="userSpaceOnUse" xlink:href="#id0" x1="37596.08" y1="17530.14" x2="36074.19" y2="17012.66">
  </linearGradient>
  <linearGradient id="id42" gradientUnits="userSpaceOnUse" xlink:href="#id0" x1="39167.2" y1="21658.79" x2="37588.46" y2="20923.01">
  </linearGradient>
  <linearGradient id="id43" gradientUnits="userSpaceOnUse" xlink:href="#id0" x1="37892.76" y1="25338.85" x2="36926.7" y2="24759.62">
  </linearGradient>
  <linearGradient id="id44" gradientUnits="userSpaceOnUse" xlink:href="#id0" x1="22929.82" y1="18561.63" x2="24451.37" y2="18044.5">
  </linearGradient>
  <linearGradient id="id45" gradientUnits="userSpaceOnUse" xlink:href="#id0" x1="22136.23" y1="20070.78" x2="24079.7" y2="19362.21">
  </linearGradient>
  <linearGradient id="id46" gradientUnits="userSpaceOnUse" xlink:href="#id0" x1="20800.87" y1="21825.23" x2="21738.61" y2="21320.77">
  </linearGradient>
 </defs>
 <g id="Layer_x0020_1">
  <metadata id="CorelCorpID_0Corel-Layer"/>
  <g id="_1998386231120">
   <path class="fil0" d="M24037.33 45198.27c122.48,-8.38 151.28,-137.99 341.55,-58.57l80.31 46.18c4.08,2.35 9.48,5.19 13.57,7.55 157.17,89.31 69.17,79.69 130.65,331.3 59.69,244.13 29.15,102.54 -21.11,376.09 -44.38,241.36 -103.23,176.62 -276.53,332.27 -119.99,107.94 -86.82,19.45 -199.89,115.07 -35.04,29.56 -333.79,184.65 -411.27,197.46 -135.63,22.3 -163.67,61.41 -229.31,54.28 -15.23,-1.66 -207.85,-67.37 -232.77,-81.7 -62.11,-35.38 -84.61,-90.77 -146.99,-146.99 -55.39,-49.99 -22.02,3.32 -67.37,-79.56l-72.49 -222.87c18.56,-127.33 74.85,-231.8 136.88,-324.51 257.07,0 128.92,5.89 319.74,226.06l171.36 206.54c71.31,81.35 31.78,24.44 116.04,72.97 117.91,67.92 75.74,125.67 253.41,40.44 -13.85,-165.82 -191.93,-231.6 -265.18,-322.64 -57.12,-70.97 -44.73,-106.76 -108.56,-185.42 -71.18,-87.65 -46.04,-101.57 -46.04,-247.94l123.52 -86.41c197.05,-173.93 111.96,-33.44 263.44,-155.65 34.62,-27.97 8.93,-18.69 74.64,-51.93 -42.1,-39.12 -9.14,-34.41 -83.36,-33.17 -108.77,1.87 -3.88,-15.02 -74.36,40.36 -92.78,72.91 -46.11,17.52 -145.33,61.28 -96.52,42.58 -39.88,43.34 -97.97,96.8 -29.35,27 -82.6,33.93 -127.26,65.7 -9.97,78.72 -14.13,109.46 -7.27,189.02 1.59,19.11 9,70.2 7.69,85.02 -13.43,153.43 3.26,50.4 -38.7,100.53 -153.02,-70.56 6.78,-177.25 -232.91,-189.36 -178.84,-8.93 -181.26,36.76 -229.24,169.97 -30.53,84.75 -49.92,56.57 -89.59,120.75 -23.33,37.66 -39.19,117.98 -30.39,171.84 29.08,178.43 148.72,-34.69 147.06,296.33 89.45,49.64 110.64,15.09 111.68,157.37 -147.54,-32.47 -70.76,-52.41 -160.77,-136.26 -81.49,-75.75 -56.84,-45.77 -124.49,-139.37 -103.44,-143.32 -235.82,-167.48 -381.84,-53.52 -133.21,103.92 -61.83,73.46 -126.84,148.72 -37.18,43 -33.3,22.92 -66.26,58.57l-184.38 233.88c-109.67,145.54 -35.52,18.35 -109.67,185.83 -42.86,96.86 -68.41,31.5 -115.69,154.12 -68.96,178.63 -48.67,71.11 -107.73,170.19l-196.84 369.03c-90.35,118.81 -35.31,17.93 -84.61,190.4 -30.12,105.44 -72.63,85.23 -101.5,163.19 -40.64,110.02 -5.95,92.78 -80.11,200.51 -66.05,95.96 -60.65,104.55 -60.65,251.19 -83.98,16.48 -105.44,92.22 -123.65,187.22 -29.5,153.98 -76.65,64.74 -116.59,213.04 -39.54,147.33 15.92,92.92 -77.06,229.87 -72.28,106.56 -60.51,149.48 -60.51,293.84 -210.62,119.92 -56.5,243.23 -191.02,419.23 -77.69,101.57 -50.82,151.77 -76.37,248.01 -27.56,103.85 -68.54,87.03 -88.97,231.67 -23.47,166.72 -0.07,121.93 -57.4,202.93 -87.72,123.94 -58.02,149.14 -83.43,284.15 -28.52,151.35 -64.25,103.99 -106.48,190.81 -34.13,70.28 -20.15,224.88 -27,320.29 -120.82,113 -108.77,86.2 -130.72,309.49 -22.64,231.32 -92.15,41.89 -113.83,354.63 -14.4,207.16 -95.06,60.58 -126.56,315.03 -29.98,242.26 -135.7,61.55 -140.9,315.65 175.1,-91.39 178.01,-207.92 275.77,-426.29 31.92,-71.39 27.35,-112.58 47.22,-183.69 26.31,-94.23 42.3,-73.6 77.13,-153.78 26.93,-62.17 27.35,-115.42 40.5,-190.54 32.06,-183.06 96.17,-177.87 124.14,-337.81 64.32,-367.51 19.73,-127.67 106.83,-355.04 43.62,-113.55 -11.35,-64.6 105.8,-356.15 26.65,-66.4 33.85,-117.56 47.98,-182.93 29.15,-134.04 83.08,-158.55 123.1,-338.91 39.39,-177.45 -0.21,-96.37 62.11,-189.85 97.9,-146.85 36.14,-208.47 119.71,-342.24 80.94,-129.33 55.46,-206.26 123.93,-337.94 103.37,-198.5 26.59,-147.4 131.2,-330.74 70.2,-122.96 9.14,-92.85 144.22,-317.73 47.7,-79.48 25.2,-91.88 55.53,-175.44 32.06,-88.35 57.67,-69.44 88,-142.91 32.54,-78.72 6.99,-93.26 57.26,-173.71 42.44,-67.92 54.91,-46.74 86.76,-144.15 81.15,-247.94 194.56,-350.96 240.25,-452.74l219.82 -367.99c24.24,-29.08 27.63,-36.56 48.05,-77.89l283.73 -409.19c149.55,-140.83 44.87,-101.64 165.69,-170.25 223.15,-126.56 301.31,-26.59 480.22,222.59 30.19,42.1 2.42,15.23 46.73,58.37l65.15 60.72c64.67,64.74 61.9,42.65 138.33,92.64 144.08,94.37 122,108.28 366.61,96.52 210.69,-10.18 119.37,-72.49 354.98,-128.09 108.29,-25.55 73.05,-34.48 148.72,-82.12 61,-38.35 101.36,-36.56 164.02,-66.88 70.69,-34.27 49.09,-53.45 137.99,-92.98 132.17,-58.78 293.01,-188.94 387.38,-305.4 121.79,-150.45 119.3,-189.36 138.47,-323.47 25.2,-176.21 2.5,-285.67 -8.37,-431.21 -25.62,-343.41 -95.06,-345.63 -21.19,-585.39 36,-116.8 106.42,-180.02 224.26,-237.55 138.26,-67.51 83.36,-60.24 164.92,-99.63 -20.43,-55.32 -1.59,-24.72 -28.04,-65.98 -105.72,6.51 -29.63,-4.78 -234.02,129.61 -437.5,287.75 -176.07,638.85 -249.18,801.55 -125.39,-30.74 -59.61,-61.83 -121.37,-158.55 -13.36,-21.05 -131.34,-131 -152.67,-142.35 -66.74,-35.72 -175.44,-29.56 -254.37,-22.02 -123.73,11.7 -153.85,27.07 -159.04,150.73z"/>
   <path class="fil1" d="M34756.27 44484.3l80.94 83.29c81.42,55.25 428.57,162.64 322.16,575.5 -67.85,263.44 -52.27,413.2 -50.75,686.2 1.18,218.17 125.94,354.15 268.98,486.8 65.29,60.58 47.36,13.64 114.31,74.64 76.85,70.21 -6.78,40.57 102.75,86.2 238.38,99.22 96.38,74.43 231.18,125.73 79.55,30.26 63.83,8.8 128.22,60.58 160.49,129.13 118.54,22.16 267.81,110.16 142.42,83.91 294.12,132.72 466.1,67.02l218.09 -138.82c82.46,-55.18 120.54,-120.4 183.06,-194.9 264.07,-314.61 255.69,-256.31 468.59,-174.41l-6.09 -112.93c-117.08,-55.04 -208.75,-69.1 -314.06,16.34 -51.24,41.61 -49.37,38.08 -89.32,99.35 -53.03,81.21 -30.67,45.49 -87.44,99.77 -52.55,50.13 -46.32,62.87 -95.48,119.71 -109.81,126.91 -275.01,244.54 -298.48,8.65 -118.81,2.49 -95.82,36.35 -169.63,34.9l-322.37 -92.71c-243.43,-149.69 -176.62,-47.7 -293.91,-146.92 -80.73,-68.2 -51.93,-38.84 -147.4,-83.5 -112.44,-52.48 -158.56,-101.22 -238.59,-181.26 -101.15,-101.02 -80.39,-95.27 -122.13,-318.83 -32.06,-171.98 38.22,-487.57 86.96,-541.22 40.57,-44.66 186.39,-143.46 313.02,-112.85 127.88,31.02 44.1,53.38 174.13,77.48l-23.75 -119.43c-68.06,-19.67 -161.19,-32.06 -248.56,-29.5 -140.07,4.15 -109.05,1.59 -182.37,68.96 -67.92,62.45 -73.32,25.27 -117.35,115.07 -47.84,97.69 5.88,109.81 -97.42,135.29 -78.52,-106.62 3.67,-171.36 2.7,-359.61 -1.04,-197.74 -184.65,-405.31 -297.44,-458.35 -137.92,-64.81 -147.82,-185.97 -226.47,-66.4z"/>
   <path class="fil2" d="M36766.97 46521.24c93.89,73.74 95.34,-12.39 171.01,-81.7 175.93,-161.25 -93.81,-70.34 217.06,-288.51l-7.27 -217.75c-86.82,-58.44 -52.96,4.29 -103.78,-92.78 -25.06,-47.98 -17.38,-86.2 -56.57,-127.12 -43.2,-45.14 -226.82,-87.65 -285.32,-15.37 -94.09,58.78 0.28,91.6 -88.21,163.95 -92.98,76.02 -37.74,-15.44 -111.26,126.01 -45.76,88.07 -46.11,49.3 -108.01,118.95 -55.04,61.9 -35.17,75.74 -142.56,67.99 -22.85,-140.55 27.07,-96.58 116.87,-135.01 15.51,-294.26 144.84,-94.65 167.62,-377.34 21.39,-264.83 -95.41,-157.1 -167.69,-317.17 -152.04,0 -40.78,-9.62 -83.78,41.89 42.58,56.29 296.68,146.85 160.01,370.07 -29.84,48.6 -42.58,50.33 -76.02,112.99 -64.53,120.96 -107.24,132.31 -197.53,222.39 -3.04,2.98 -7.41,7.54 -10.31,10.66 -101.5,105.38 -120.96,100.53 -128.09,186.87 155.09,36.14 75.81,114.1 339.19,-80.59 117.22,-86.69 151.42,-180.02 238.45,-265.46 61.96,-60.65 89.8,-130.93 135.98,-199.95 151.7,0 176.69,5.68 231.67,104.2 80.31,144.15 76.09,365.85 -47.01,500.51 -58.02,63.42 -115.56,101.78 -164.44,172.26z"/>
   <path class="fil3" d="M34756.27 44484.3c78.65,-119.57 88.55,1.59 226.47,66.4 112.79,53.04 296.4,260.61 297.44,458.35 0.97,188.26 -81.22,252.99 -2.7,359.61 103.3,-25.48 49.57,-37.59 97.42,-135.29 44.03,-89.8 49.43,-52.62 117.35,-115.07 73.32,-67.37 42.3,-64.81 182.37,-68.96 87.37,-2.56 180.5,9.83 248.56,29.5l23.75 119.43 249.81 152.87c40.57,13.02 49.09,18.69 88.34,36.14 43,-51.51 -68.26,-41.89 83.78,-41.89 72.28,160.07 189.08,52.34 167.69,317.17 -22.78,282.69 -152.11,83.08 -167.62,377.34 -89.8,38.43 -139.72,-5.54 -116.87,135.01 107.39,7.76 87.52,-6.09 142.56,-67.99 61.9,-69.65 62.24,-30.88 108.01,-118.95 73.53,-141.45 18.28,-49.99 111.26,-126.01 88.48,-72.35 -5.89,-105.17 88.21,-163.95 58.5,-72.28 242.12,-29.77 285.32,15.37 39.19,40.92 31.5,79.14 56.57,127.12 50.82,97.07 16.96,34.34 103.78,92.78l7.27 217.75c-310.87,218.17 -41.13,127.26 -217.06,288.51 -75.67,69.31 -77.13,155.44 -171.01,81.7l-88.48 33.93c-2.43,1.39 -7.96,5.19 -11.63,8.03 23.47,235.89 188.67,118.26 298.48,-8.65 49.16,-56.84 42.93,-69.58 95.48,-119.71 56.78,-54.28 34.41,-18.56 87.44,-99.77 39.95,-61.28 38.08,-57.74 89.32,-99.35 105.31,-85.44 196.98,-71.38 314.06,-16.34l6.09 112.93c75.19,29.22 81.83,94.71 133.56,146.92 112.09,113.2 236.51,317.8 322.3,454.61 3.32,5.26 13.15,20.15 16.96,25.06 2.63,3.46 6.79,7.96 9.56,11.35l48.67 56.36c22.36,36.14 25.48,64.53 43.13,103.85 30.54,67.92 28.87,49.02 68.41,99.56l114.24 200.65c29.01,35.87 35.66,43.48 54.21,92.78 47.08,125.11 72.15,107.04 112.3,202.59 53.17,126.35 28.46,97.76 104.06,210.96 30.39,45.56 33.58,77.27 46.04,121.93l284.42 660.38c25.2,49.57 35.66,54.77 52.69,94.3l77.89 237.07c64.46,125.25 68.54,245.58 131.06,351.86 65.78,111.89 47.7,92.91 75.47,239.49 27.28,144.22 56.64,89.45 93.26,200.65 28.87,87.65 32.33,170.11 63.07,251.88 40.78,108.49 59.68,88.48 89.45,225.5 17.86,82.32 39.33,162.91 74.64,240.32 50.13,109.74 39.05,142.56 64.94,250.02 25.27,104.82 64.81,131.13 92.98,221.97 28.87,93.26 6.72,158.07 52.28,262.75 39.39,90.35 71.45,114.72 93.68,221.21 37.94,181.47 93.47,307.76 143.67,486.25 26.31,93.33 64.46,128.36 95.41,219.55 60.44,177.87 145.81,285.6 345.42,285.88 298.55,0.35 308.66,-52.07 533.54,-98.52 166.86,-34.48 407.25,-53.93 557.84,-7.89 85.37,26.17 31.92,12.39 91.74,55.25 51.1,36.63 53.66,26.45 110.3,57.67l1997.34 1781.6c163.74,150.66 298.2,310.18 475.86,447.89 48.33,37.53 37.04,24.37 78.65,68.34 4.22,4.43 15.58,17.8 19.73,22.22 145.54,151.28 297.37,308.17 462.43,440.35l947.3 858.19c3.32,2.77 8.44,6.44 11.77,9.28l32.13 30.74c115.42,121.03 250.91,209.65 372.63,320.29l89.04 78.86c24.44,26.03 9.83,15.65 40.57,43.41l271.82 210.96c99.01,88.63 138.54,34.13 141.66,173.37l293.84 0c2.56,-112.51 10.32,-83.15 88.69,-121.3 120.26,-58.57 274.46,-215.39 355.26,-316.62l195.31 -245.51c91.67,-101.85 226.96,-225.78 304.3,-346.53 113.96,-178.01 272.52,-314.68 385.44,-496.36 50.96,-81.91 46.32,-62.8 103.58,-127.32l176.69 -264.21c66.95,-116.87 154.81,-203.63 226.54,-319.39l226.89 -319.04c60.3,-74.15 18.62,-76.99 74.57,-156.41l186.31 -254.51c92.98,-125.11 143.87,-291.83 242.47,-408.5l149.83 -291c37.59,-98.67 26.59,-78.31 76.23,-154.74 64.67,-99.63 34.55,-262.41 167.41,-273.42l0 -336.07c-97.97,-8.1 -152.04,-98.04 -229.86,-147.96l-877.02 -634.56c-1.04,-0.69 -30.12,-24.37 -34.55,-28.32l-354.28 -254.58c-117.36,-103.93 -322.92,-213.46 -359.61,-249.25l-766.24 -535.34c-39.74,-25.48 -52.41,-19.73 -98.18,-48.81 -36.35,-23.13 -37.39,-33.02 -66.88,-59.06l-481.68 -337.11c-36.28,-29.29 -34.48,-42.86 -79.41,-67.51l-330.19 -215.67c-69.79,-58.64 -97,-58.85 -166.24,-106.62l-331.65 -214.29c-68.75,-38.63 -66.6,-70.48 -154.95,-117.91l-161.74 -111.2c-27.63,-17.17 -54.84,-26.31 -82.46,-43.48 -43.69,-27.07 -42.09,-35.66 -81.83,-65.08l-155.99 -116.94c-63.7,-47.43 -121.79,-58.09 -195.52,-119.43l-1303.31 -837.97c-84.33,-67.16 -234.43,-176.28 -334.41,-211.45 -83.84,-29.43 -88.28,-63 -255.83,-143.04 -102.82,-49.09 15.72,-21.95 -277.09,-142.77 -347.5,-143.46 -463.19,-8.37 -910.05,-181.54 -106.9,-41.33 -125.25,-14.75 -235.89,-36.97 -99.43,-19.94 -275.84,-139.51 -332.34,-213.53 -59.89,-78.31 -59.2,-70.14 -109.88,-162.98l-202.65 -343.2c-36,-62.87 -38.7,-137.92 -74.5,-198.43 -50.2,-84.88 -56.22,-32.4 -97.9,-175.03l-500.58 -864.28c-40.78,-85.44 -61,-77.89 -110.78,-162.15l-126.57 -146.37c-38.29,-42.17 -79.9,-115.56 -110.98,-161.94 20.7,-88.83 223.77,-361.48 48.12,-531.19 -40.85,-39.46 -51.23,-32.96 -97.21,-70.62 -48.74,-39.88 -38.43,-53.17 -105.86,-83.15 -261.99,-116.66 -186.11,-41.19 -253.68,-271.2 -14.61,-49.71 -42.86,-77.55 -69.93,-119.09 -123.93,-190.13 -280.55,-318.77 -497.74,-383.92 -69.72,-20.91 -75.05,-33.58 -119.57,-69.38 -61.69,-49.43 -152.94,-62.38 -219.83,-116.11 -72.15,-57.95 -12.53,-28.11 -106.21,-61.69 -82.32,-29.49 -157.03,-92.85 -238.73,-118.12 -97.21,-30.05 -83.5,-45.28 -152.6,-99.35l-25.34 -16.61c-55.74,-26.1 -122,-9.63 -419.64,-189.16l-238.94 -117.91c-157.51,-98.18 -191.93,-90.49 -235.2,-121.72 -169.56,-122.41 -110.3,-53.17 -234.71,-122.13 -60.24,-33.44 -48.12,-43.48 -98.39,-69.58 -47.5,-24.72 -75.81,-21.74 -125.25,-42.72 -61.76,-26.17 -56.5,-37.11 -101.02,-67.02 -50.06,-33.58 -81.84,-26.17 -235.13,-121.72 -48.26,-30.12 -74.57,-32.54 -131.83,-57.05 -63.07,-26.87 -58.3,-31.43 -103.85,-64.04 -84.95,-61.07 -135.63,-48.47 -231.11,-125.87 -70.69,-57.26 -49.37,-29.15 -135.91,-52.9l-464.51 -249.39c-70.28,-25.41 -50.82,-11.08 -113.69,-54.21l-336.98 -187.77c-54.35,-18.42 -79.62,-21.46 -121.23,-46.81l-586.09 -316.55c-52.83,-25.2 -74.43,-17.38 -124.21,-43.76 -57.33,-30.32 -46.39,-49.57 -109.19,-79.76 -47.01,-22.57 -77.61,-20.91 -121.86,-46.04 -57.12,-32.47 -48.54,-52.41 -108.77,-80.24 -47.43,-21.95 -81.56,-18.21 -128.71,-39.12 -140.28,-62.17 -179.67,-159.17 -411.68,-130.86 -128.85,15.72 -136.12,67.37 -220.87,118.12 -98.52,58.99 -156.2,-37.18 -225.64,-73.74l-468.39 -245.37c-45.7,-22.09 -79.48,-24.51 -122.27,-45.63 -70.34,-34.83 -49.78,-49.44 -109.81,-79.14 -34.48,-17.1 -85.79,-22.5 -127.74,-40.23 -79.76,-33.58 -56.01,-45.83 -110.78,-78.1 -42.17,-24.85 -68.26,-20.98 -121.51,-46.46 -66.68,-31.92 -59.2,-45.14 -111.68,-77.27 -53.1,-32.54 -59.26,-24.37 -120.19,-47.78 -68.27,-26.24 -87.79,-59.96 -239.07,-117.77 -79.48,-30.39 -40.02,-22.5 -97.07,-70.97 -70.34,-59.68 -164.5,-67.3 -240.04,-116.73 -93.68,-61.48 -355.04,-156.41 -472.81,-240.94 -95.41,-68.41 -167.97,-61.83 -237.97,-118.88 -113.55,-92.57 -144.22,-55.73 -232.77,-124.14 -108.98,-84.19 -145.88,-56.84 -239.91,-117.01 -57.67,-36.97 -24.37,-35.93 -102.47,-65.5 -180.5,-68.26 -131.34,-88.62 -230.7,-126.22 -124.76,-47.08 -124.97,-68.89 -219.2,-116.67 -55.87,-28.25 8.31,-1.11 -63.07,-20.91 -71.87,-19.94 -121.58,-61.2 -176.2,-96.65 -72.77,-47.29 -66.26,-11.77 -140.2,-48.74 -50.41,-25.2 -44.17,-44.17 -93.06,-74.92 -56.98,-35.72 -80.66,-25.55 -138.75,-50.13l-331.57 -193.17c-84.96,-56.64 -149.35,-45.07 -238.8,-118.19 -80.04,-65.43 -137.85,-48.74 -235.33,-121.51l-363.56 -182.3c-144.63,-65.43 -326.24,-201.06 -468.04,-245.72 -140.27,-44.17 -95.06,-86.69 -227.51,-129.33 -100.81,-32.47 -141.66,-73.67 -242.4,-114.45 -99.01,-40.23 -133.49,-84.75 -230.7,-126.29 -52.06,-22.16 -77.2,-20.43 -119.92,-47.98 -67.02,-43.34 -15.51,-37.18 -114.86,-74.09 -184.44,-68.33 -153.7,-92.84 -230.07,-126.7 -43.34,-19.25 -82.39,-12.81 -132.45,-35.52 -57.81,-26.17 -39.33,-35.8 -97.69,-70.28 -31.57,-18.62 -91.74,-37.32 -118.39,-49.64l-234.23 -122.62c-106.56,-45.49 -114.52,-75.33 -235.96,-120.96 -85.85,-32.19 -52.62,-36.69 -110.37,-78.58 -82.32,-59.68 -136.19,-22.99 -249.87,-107.04 -84.88,-62.73 -144.01,-65.64 -232.63,-124.14 -4.09,-2.7 -48.12,-32.06 -50.54,-33.37 -48.19,-26.17 -5.47,-3.6 -58.64,-25.41l-121.65 -67.23c-45.63,-29.49 -66.95,-37.25 -112.51,-55.46 -89.87,-36.07 -52.48,-19.8 -117.49,-71.52 -91.46,-72.77 -134.18,-35.17 -230.7,-105.17 -71.18,-51.72 -166.44,-67.57 -239.91,-116.94l-566.29 -315.44c-67.16,-28.53 -77.33,-10.46 -137.37,-51.51 -143.32,-97.97 -142.97,-66.4 -236.58,-120.33 -49.92,-28.87 -44.45,-46.59 -96.03,-71.94 -46.46,-22.78 -88.21,-21.6 -139.65,-49.3 -36,-19.46 -72.22,-54.77 -98.67,-69.24 -48.67,-26.72 -77.96,-21.33 -135.77,-53.24 -60.1,-33.23 -52.83,-49.71 -95.13,-72.77 -89.94,-49.09 -125.46,-30.46 -227.58,-108.29 -73.46,-56.01 -170.67,-59.82 -240.94,-115.9l-363.08 -182.78c-97.62,-38.01 -135.43,-91.74 -230.97,-125.87 -125.18,-44.66 -98.31,-84.4 -234.57,-122.34 -98.87,-27.56 -442.28,-238.11 -465.76,-248.01l-353.38 -171.36c-62.31,-49.78 -28.46,-43.83 -113,-76.02 -142.21,-54.14 -137.02,-76.78 -236.86,-120.06l-237.41 -119.5c-44.52,-21.81 -76.51,-22.29 -121.37,-46.53 -58.44,-31.57 -45.56,-39.81 -118.19,-70.76 -48.67,-20.63 -68.89,-24.3 -117.08,-50.75 -63.01,-34.55 -65.36,-52.34 -112.37,-76.65 -51.17,-26.52 -74.84,-18.9 -125.39,-42.51 -117.36,-54.97 -3.12,-43.89 -233.95,-122.96 -115.48,-39.53 -37.18,-50.68 -233.46,-123.45 -61.69,-22.78 -62.04,-33.23 -104.2,-63.7 -65.78,-47.43 -38.43,-25.62 -115.97,-52l-356.29 -189.5c-91.11,-77.69 -140.83,-46.39 -239.14,-117.77 -61.83,-44.87 -25.96,-34.2 -106.49,-61.48 -91.04,-30.95 -145.12,-91.94 -231.67,-125.18 -67.64,-25.96 -69.93,-16.48 -133.21,-55.74 -34.07,-21.05 -64.25,-47.36 -103.79,-64.19 -74.98,-31.85 -61.2,-4.98 -129.61,-59.33 -87.52,-69.44 -151.15,-72.42 -230.91,-125.94 -37.11,-24.85 -55.04,-48.12 -100.74,-67.23l-226.4 -109.46c-53.8,-27.56 -79.97,-27.48 -133.77,-55.11 -60.44,-30.95 -52.89,-40.64 -101.29,-66.68 -51.03,-27.35 -88.35,-27.63 -135.29,-53.66 -49.57,-27.49 -39.12,-35.93 -98.66,-69.37 -53.18,-29.84 -87.17,-31.78 -133.56,-55.32 -92.98,-47.29 -31.92,-31.98 -93.12,-74.7 -58.09,-40.57 -80.94,-26.24 -140,-48.95 -75.89,-29.22 -42.44,-30.19 -103.37,-64.6 -47.63,-26.87 -79.9,-28.11 -137.78,-51.17 -22.5,-8.93 -37.11,-15.72 -56.22,-27.83l-174.2 -98.73c-75.54,-33.85 -46.53,-33.44 -101.36,-66.6 -59.75,-36 -79.42,-25.55 -138.41,-50.41 -114.24,-48.05 -67.78,-81.28 -213.87,-122 -160.14,-44.59 -92.57,-75.61 -233.81,-123.17l-354.15 -170.67c-160.63,-106.21 -166.51,-83.98 -229.59,-127.26 -79.97,-54.76 -163.33,-66.67 -239.84,-117.08 -65.29,-42.93 -29.56,-46.73 -110.71,-78.17l-475.38 -238.45c-45.14,-24.02 -76.99,-24.51 -121.65,-46.32 -70.96,-34.69 -42.44,-40.92 -113.34,-75.54 -42.44,-20.7 -80.31,-22.64 -122,-45.98 -131.48,-73.74 23.82,-29.49 -231.94,-124.9 -69.1,-25.76 -100.74,-66.33 -237.69,-119.16 -79.42,-30.67 -54.01,-33.37 -116.39,-72.56 -48.95,-30.67 -70.07,-29.43 -117.01,-50.96 -67.3,-30.81 -61.9,-44.59 -113.62,-75.33 -64.94,-38.77 -60.93,-17.65 -123.17,-44.8 -73.39,-32.06 -53.24,-48.95 -104.69,-84.26 -82.25,-56.5 -133.76,-12.26 -250.7,-106.14 -102.33,-82.04 -194.35,-20.56 -205.29,-151.63l-377.82 0c-3.12,140.76 -56.36,54.83 -161.53,300.35 -31.36,73.19 -51.3,80.94 -82.81,148.17 -46.18,98.46 -3.04,109.39 -112.44,118.46l0 273c101.64,8.45 141.31,90.08 212.7,144.22l154.33 76.57c80.31,46.87 100.81,73.88 189.99,103.85 110.5,37.18 95.82,72.01 187.15,106.83l193.72 100.11c73.53,50.33 9.21,14.75 102.75,44.17 96.93,30.46 35.31,1.39 97.76,49.23 65.85,50.54 2.63,22.85 91.26,55.67l1265.57 644.8c90.84,38.01 88.56,68.13 185.07,108.84l184.17 109.74c106.62,59.13 117.7,-4.64 226.26,88.69l282.21 158.55c39.95,19.87 68.54,22.5 108.98,37.94 108.15,41.33 70.55,68.96 182.92,111.06 56.36,21.05 54.14,9.48 104.48,42.51 42.37,27.69 38.08,41.13 81.7,65.22 96.45,53.52 126.29,0.62 214.15,79.76 77.48,69.72 -27.35,21.12 82.88,64.04l874.32 448.31c84.81,61.28 127.6,47.01 203.42,90.43 72.7,41.75 103.23,77.41 186.52,107.39 96.44,34.76 108.15,69.72 189.57,104.27 47.84,20.35 53.59,11.84 102.89,44.1 69.24,45.28 20.77,29.5 83.01,63.97 91.26,50.61 105.59,17.93 199.06,94.79 84.33,69.37 146.23,44.04 220.17,94.78 36.14,24.79 30.95,40.5 79.14,67.78 31.16,17.59 70.97,24.85 106.97,40.02 74.08,31.02 107.94,67.44 191.65,102.19l380.31 207.57c79.62,54.97 142.77,40.37 207.16,86.61 37.67,27.14 32.2,43.2 80.11,66.95 90.22,44.59 126.36,21.39 204.18,89.66 67.3,58.99 119.78,43.69 200.99,92.92 169.15,102.47 189.09,91.81 282,158.9 86.61,62.66 122.76,35.52 202.38,91.46 28.25,19.8 45,44.73 82.6,64.46 36.9,19.45 76.09,24.09 111.33,35.52 107.52,35.1 90.91,67.65 188.6,105.38l480.29 254.44c197.54,67.78 81.29,70.69 314.89,146.92 80.39,26.24 279.3,163.12 373.67,214.15 84.54,45.7 329.84,140.41 396.52,191.23l192.89 101.02c66.54,24.16 43.41,18.83 90.63,56.43 86.55,68.96 -7.2,18.28 98.39,48.54 116.52,33.3 106.62,61.2 191.93,101.99 48.95,23.4 61.2,15.3 109.94,36.97 69.24,30.81 44.73,38.15 96.24,71.73 79.28,51.72 123.1,19.11 206.95,86.96 78.44,63.35 111.4,56.7 193.86,99.98 99.77,52.28 26.17,65.85 187.98,105.93l384.96 202.93c83.7,60.24 122.06,39.33 203.9,89.87 93.33,57.67 191.78,100.74 271.96,168.94 37.59,32.06 63.42,38.77 106.42,61.55 -4.57,204.25 -131.27,272.65 -40.57,502.59 38.77,98.59 159.59,130.51 206.53,171.36 41.33,35.86 4.98,13.29 47.98,36 51.72,27.14 63.77,15.72 117.56,50.33l472.2 304.57c54.63,38.43 59.54,22.92 119.92,48.05l780.3 479.32c164.78,78.44 331.44,202.04 496.29,280.41 59.41,28.32 40.71,32.89 96.45,71.52 40.16,27.76 64.6,31.71 99.28,47.7 81.63,37.8 108.35,93.96 190.54,124.28 91.94,33.93 32.2,-2.91 105.66,62.38 99.01,87.93 123.72,35.52 209.65,105.1 82.26,66.61 126.15,64.74 198.43,116.53 44.24,31.85 21.88,30.26 82.94,64.04 45.49,25.27 77.34,29.22 114.45,53.45l199.06 115.83c115.69,74.91 49.16,57.54 200.3,114.65 94.37,35.8 75.26,78.31 188.88,125.94 156.61,65.71 358.16,220.73 392.98,236.93l144.7 86.2c42.03,31.5 13.22,14.19 52.97,31.02 101.91,43.28 106.35,68.13 196.91,117.98l401.09 228.69c65.63,50.75 25.13,16.41 94.65,52.28 86.69,44.86 104.27,85.78 196.49,118.39 101.43,35.93 35.73,1.94 107.8,60.24l306.17 176.62c138.61,59.47 252.23,177.8 388.21,241.57 192.27,90.28 75.33,55.25 196.01,118.95 105.03,55.39 95.41,34.55 202.52,112.37 62.24,45.28 277.78,140.07 397.14,232.63l802.11 457.59c46.46,29.43 46.18,44.31 95.34,72.56l195.39 119.5c57.12,40.3 46.8,20.15 103.02,43.96l98.45 69.44c82.67,58.16 122.34,38.63 206.12,108.77 79.62,66.68 366.33,203.9 398.8,230.98 58.57,49.09 15.99,37.87 97,70.96 150.66,61.48 108.29,71.25 195.46,119.37 102.47,56.57 86.06,27.35 202.72,112.23 51.17,37.25 57.67,27.35 114.17,53.8 142.77,66.81 256.73,176.14 395.55,234.23 111.4,46.67 61.13,74.15 198.57,116.39 141.24,43.34 81.14,71.73 195.24,119.57 124.07,52.06 329.08,201.89 395.2,234.57 146.57,72.56 134.67,90.49 192.61,122.34 97.49,53.52 90.29,9.35 207.02,107.87 64.67,54.56 13.43,17.03 97.14,49.85 142.91,56.08 248.35,183.89 391.19,238.66 77.41,29.7 45.21,3.88 109.88,57.95 58.3,48.88 136.54,66.67 198.71,116.25 76.99,61.34 122.89,63.35 205.35,109.53 105.38,58.92 56.36,79.35 223.91,115.49z"/>
   <path class="fil4" d="M19673.07 52485.08c5.19,-254.1 110.92,-73.39 140.9,-315.65 31.5,-254.44 112.16,-107.87 126.56,-315.03 21.67,-312.74 91.19,-123.31 113.83,-354.63 21.94,-223.29 9.9,-196.49 130.72,-309.49 6.85,-95.41 -7.13,-250.01 27,-320.29 42.23,-86.82 77.96,-39.46 106.48,-190.81 25.41,-135.01 -4.29,-160.21 83.43,-284.15 57.33,-81 33.93,-36.21 57.4,-202.93 20.43,-144.64 61.41,-127.81 88.97,-231.67 25.55,-96.24 -1.31,-146.44 76.37,-248.01 134.53,-176 -19.59,-299.31 191.02,-419.23 0,-144.36 -11.77,-187.28 60.51,-293.84 92.98,-136.95 37.53,-82.53 77.06,-229.87 39.95,-148.3 87.1,-59.06 116.59,-213.04 18.21,-95 39.67,-170.74 123.65,-187.22 0,-146.65 -5.4,-155.23 60.65,-251.19 74.15,-107.73 39.46,-90.49 80.11,-200.51 28.87,-77.96 71.38,-57.74 101.5,-163.19 49.3,-172.47 -5.74,-71.59 84.61,-190.4l196.84 -369.03c59.06,-99.08 38.77,8.44 107.73,-170.19 47.29,-122.62 72.83,-57.26 115.69,-154.12 74.15,-167.48 0,-40.3 109.67,-185.83l184.38 -233.88c32.96,-35.66 29.08,-15.58 66.26,-58.57 65.01,-75.26 -6.37,-44.8 126.84,-148.72 146.02,-113.96 278.4,-89.8 381.84,53.52 67.65,93.61 43,63.63 124.49,139.37 90.01,83.84 13.22,103.78 160.77,136.26 -1.04,-142.28 -22.22,-107.73 -111.68,-157.37 1.66,-331.02 -117.98,-117.91 -147.06,-296.33 -8.8,-53.87 7.06,-134.18 30.39,-171.84 39.67,-64.19 59.06,-36 89.59,-120.75 47.98,-133.21 50.41,-178.91 229.24,-169.97 239.7,12.11 79.9,118.81 232.91,189.36 41.96,-50.13 25.27,52.89 38.7,-100.53 1.31,-14.82 -6.09,-65.91 -7.69,-85.02 -6.85,-79.56 -2.7,-110.3 7.27,-189.02 44.66,-31.78 97.9,-38.7 127.26,-65.7 58.09,-53.45 1.45,-54.21 97.97,-96.8 99.22,-43.76 52.55,11.63 145.33,-61.28 70.48,-55.39 -34.41,-38.49 74.36,-40.36 74.22,-1.25 41.26,-5.96 83.36,33.17 92.71,-41.27 -33.17,38.01 28.46,-14.61 29.35,-25.13 9.69,-7.69 23.95,-27.42 5.19,-123.66 35.31,-139.03 159.04,-150.73 78.93,-7.55 187.63,-13.71 254.37,22.02 21.33,11.35 139.3,121.3 152.67,142.35 61.76,96.72 -4.02,127.81 121.37,158.55 73.11,-162.7 -188.32,-513.8 249.18,-801.55 204.39,-134.39 128.3,-123.1 234.02,-129.61 26.45,41.26 7.62,10.66 28.04,65.98 68.68,-75.26 29.49,-17.17 118.6,-57.33 76.71,-34.48 54.35,-52.48 124.42,-85.92 89.39,-42.65 60.24,-1.11 138.2,-71.8 67.44,-61.07 123.59,-62.59 200.44,-114.38 12.25,-8.24 45.49,-35.52 60.03,-45 56.01,-36.7 83.01,-36.91 137.43,-72.56l260.68 -159.04c79.76,-58.09 56.22,-29.35 140.41,-69.65 66.19,-31.64 50.96,-49.16 121.93,-88 69.09,-37.8 90.77,-20.84 148.51,-61.35 62.04,-43.69 28.39,-50.13 119.64,-90.35l531.88 -307.9c107.18,-95.55 135.15,-48.19 252.37,-146.5l263.52 -156.27c107.11,-59.13 162.43,-100.46 268.98,-150.87 82.39,-38.91 59.2,-49.57 123.93,-86.06 63.42,-35.72 73.6,-17.1 139.93,-69.93 109.39,-87.1 279.99,-156.61 403.85,-225.92 58.78,-32.89 50.61,-52.76 119.64,-90.35 243.37,-132.31 87.24,-81.63 270.58,-149.27 31.02,-11.43 432.17,-226.2 140.76,-310.8l-299.52 -162.29c-61.55,-42.44 -61.07,-48.33 -139.65,-91.26 -102.33,-55.87 -115.14,-95.96 -212.7,-123.17 -15.85,-4.5 -33.72,-7.2 -49.16,-13.85 -30.95,-13.29 -21.74,-10.04 -39.19,-23.81l-144.15 -86.82c-116.32,-44.59 -50.61,-54.07 -146.23,-105.66 -43.96,-23.68 -30.19,-9.48 -75.54,-29.43l-521.15 -318.63c-78.31,-61.97 -83.22,-26.45 -155.71,-75.19 -48.61,-32.54 -62.04,-68.96 -141.45,-90.63 -217.54,-59.26 -223.49,134.25 -347.78,118.12 -75.46,-40.02 -56.77,-43.76 -117.7,-92.22 -165.27,-131.2 -381.77,-21.67 -520.8,62.39 -73.18,44.17 -158.2,55.11 -226.26,109.6 -67.85,54.42 -9.97,22.71 -81.35,44.52 -174.13,53.11 -134.67,73.67 -312.95,148.93l-584.01 318.7c-84.81,56.84 -93.33,20.08 -171.5,59.47 -64.32,32.47 -45.98,58.78 -134.6,96.38l-156.61 74.22c-80.31,55.74 -73.53,33.79 -161.8,69.1 -111.68,44.66 -26.93,36.7 -120.68,89.31 -73.11,40.99 -89.45,15.03 -164.99,65.91 -96.86,65.02 -211.59,98.11 -295.98,165.89 -78.79,63.42 -83.22,29.7 -161.11,69.79 -56.36,29.01 -57.61,54.84 -141.24,89.73l-312.95 148.79c-78.65,31.85 -78.1,45.28 -132.04,77.96 -56.08,34.06 -109.53,35.59 -167.13,63.76 -79.9,39.12 -38.22,54.63 -142.28,88.69 -167.9,54.83 -142.28,82.39 -308.24,153.5 -80.73,34.55 -85.93,59.26 -144.22,86.82 -72.91,34.41 -88.35,23.19 -160.56,70.34 -69.37,45.28 -63.98,47.91 -147.61,83.29 -68.68,29.15 -70.76,37.53 -132.1,77.89 -101.57,66.81 -84.89,20.36 -174.06,56.78 -36.63,14.89 -65.5,64.53 -209.93,125.94 -27.07,11.49 -56.84,32.47 -78.79,47.22 -77.2,51.58 -148.03,56.57 -224.12,111.68 -24.3,17.59 -43.76,36.28 -73.74,52.28l-424.7 205.08c-3.26,2.91 -7.2,7.61 -10.46,10.52 -72.49,64.6 -89.38,45.28 -171.01,80.87 -87.72,38.22 -208.68,122.69 -250.57,211.38 -65.15,138.47 5.74,274.39 -107.73,354.21 -52,36.49 -109.74,36.49 -163.26,67.65 -38.01,22.16 -78.59,77.2 -120.68,110.22 -309.28,243.09 62.87,446.72 -37.87,610.87 -29.43,48.12 -64.39,88.69 -103.3,129.89 -114.38,121.09 -181.47,287.95 -286.43,406.42 -60.24,67.92 -62.04,131.41 -115.9,199.06 -121.23,152.32 -168.73,310.6 -207.16,380.73 -43.62,79.69 -57.95,49.3 -94.51,136.33 -68.41,162.64 -117.63,214.15 -149,312.95 -27.56,86.82 -35.8,80.18 -82.39,148.58 -39.95,58.71 -33.79,79.28 -66.12,143.87l-185.35 276.6c-20.01,25.61 -22.5,35.24 -41.96,63 -0.28,0.42 -23.26,31.92 -27.35,35.66 -30.53,28.18 -3.11,6.23 -38.22,24.79l-147.68 83.15c-66.95,35.72 -96.1,40.16 -182.65,48.33 -164.23,15.44 -207.78,75.19 -353.87,107.94 -103.37,23.13 -294.05,21.19 -405.66,35.11 -350.48,43.62 -387.66,107.52 -673.88,249.8 -80.87,40.09 -55.59,60.31 -135.29,95.62 -119.09,52.89 -43.34,-9.63 -147.47,83.43 -67.44,60.24 -133.56,65.29 -196.01,118.88l-74.57 51.44c-79,45.21 -71.31,56.98 -132.31,98.66 -72.98,49.78 -85.44,24.51 -152.87,78.03 -65.91,52.41 -149,81.08 -202.72,133.15l-477.94 319.8c-77.69,42.44 -72.28,59.13 -133.42,97.56l-292.11 169.63c-56.64,31.85 -69.86,65.29 -128.09,102.89l-418.26 274.59c-55.25,34.13 -61.62,62.52 -114.1,95.82 -74.29,47.22 -77.75,15.16 -150.94,80.04 -137.16,121.51 -440.41,274.66 -548.77,374.85 -107.8,99.63 -275.98,165.75 -398.94,272.86l-742.91 516.71c-46.74,36.83 -31.78,21.53 -77.34,48.67 -40.22,23.96 -22.09,12.39 -61.69,43.27l-472.4 325.34c-76.57,39.05 -61.83,56.29 -131.2,99.7 -42.58,26.66 -16.48,1.66 -66.19,38.77l-229.45 169.49c-36.07,34.76 2.5,5.06 -32.75,30.26l-137.71 93.19c-103.65,99.15 -33.58,-15.09 -191.44,144.5 -73.46,74.15 -54.77,4.57 -145.54,85.37 -151.56,135.01 -549.19,393.33 -660.24,494.35 -63.01,57.19 -44.87,81.07 -141.8,89.11l0 357.06c127.4,10.59 100.46,145.67 167.9,251.95 44.66,70.41 33.23,61.34 65.5,144.43 34.55,88.97 50.27,66.95 87.72,143.25 49.57,101.02 41.75,116.94 109.6,205.35l123.93 212.07c44.04,63.91 42.17,94.44 81.42,149.48 135.63,190.06 244.82,414.24 387.52,599.17l224.26 321.67c34.76,52.76 63.77,85.23 94.23,136.74 124.97,211.24 685.23,909.07 858.74,1114.78l312.81 359.06c89.52,101.78 224.74,245.1 342.86,307.96 91.74,48.81 99.98,-7.06 103.03,127.95l293.84 0c3.19,-143.94 44.24,-86.61 152.25,-183.76l1475.71 -1295.48c44.31,-34.96 49.57,-43.13 87.72,-80.24 129.68,-126.22 275.35,-221.14 402.13,-353.59 210.2,-219.76 301.73,-287.95 508.75,-478.01l635.66 -602.98c330.26,-256.25 798.58,-784.59 1118.87,-1022.56l638.36 -516.37c60.03,-33.02 54.76,-45.21 123.86,-65.01 341.75,-98.11 1060.91,190.33 1228.4,83.08z"/>
   <path class="fil5" d="M49592.43 29385.67l-398.87 0c-8.1,98.45 -17.72,79.62 -104.2,105.65 -123.59,37.25 -63.91,33.65 -144.7,86.34 -83.71,54.49 -140.55,32.26 -215.4,99.42 -74.98,67.3 -144.84,51.1 -226.06,109.81 -108.08,78.31 -173.44,80.18 -281.31,159.59 -68.27,50.2 -103.16,31.3 -163.88,67.02 -66.26,38.98 -29.22,50.61 -127.88,81.98 -109.19,34.83 -76.09,4.15 -158.97,72.07 -78.93,64.67 -179.6,82.53 -286.71,154.05l-282.35 158.56c-69.1,27.21 -78.03,20.35 -145.47,64.53 -92.71,60.79 -46.18,33.85 -158.76,72.07 -103.58,35.04 -51.51,33.37 -126.77,83.15 -63.97,42.44 -108.15,32.06 -168.87,62.11 -65.5,32.4 -38.91,48.81 -124.49,85.37 -100.53,42.86 -71.04,8.1 -154.81,76.16 -76.37,62.04 -417.56,201.27 -437.16,213.59 -75.12,47.08 -35.59,59.75 -138.61,92.36 -89.8,28.46 -78.1,6.16 -147.96,61.97 -124.56,99.49 -146.65,52.89 -285.53,155.37 -64.67,47.63 -94.79,33.37 -160.56,70.28 -69.17,38.77 -35.31,51.23 -124.9,85.02 -113.34,42.79 -62.52,7.83 -155.3,75.61 -79.97,58.57 -68.48,36.56 -166.31,64.67 -128.37,36.83 -44.11,46.04 -134.32,96.65 -43.62,24.51 -104.76,28.18 -153.78,56.08 -82.88,47.08 -24.37,44.45 -143.87,87.1 -121.72,43.41 -175.86,98.31 -292.8,148.03 -76.5,32.54 -75.05,50.75 -130.02,79.9 -69.03,36.63 -105.03,20.01 -169.91,61 -75.95,48.05 -19.39,41.4 -126.35,83.64 -122,48.12 -168.45,103.02 -292.18,148.65 -101.08,37.11 -337.59,204.53 -434.18,237.62 -95.96,32.82 -68.2,16.06 -142.35,67.5 -83.36,57.88 -54.98,34.48 -158.2,72.77l-573.14 308.52c-61.83,42.72 -77.27,34.96 -147.96,61.97 -95.54,36.56 -67.57,53.45 -138.4,92.57 -58.99,32.68 -102.26,23.47 -157.1,52.83 -74.71,39.88 -32.47,51.51 -139.3,91.67l-719.02 372.56c-120.89,39.05 -58.99,-2.28 -156.2,74.64 -122,96.52 -45.42,-14.19 -283.67,157.24 -68.89,49.5 -87.17,25.89 -163.46,67.5 -69.44,37.94 -59.96,49.09 -147.61,83.3 -127.26,49.64 -156.75,99.01 -291.63,149.13 -62.31,23.19 -80.11,50.33 -131.83,78.17 -66.05,35.45 -103.65,25.96 -166.17,64.74l-488.67 267.11c-3.6,2.56 -8.24,6.65 -11.77,9.21l-63.91 41.06c-67.43,33.44 -93.05,23.54 -148.51,61.41 -189.43,129.33 -143.74,51.03 -286.29,154.54 -57.05,41.48 -97.76,45.49 -161.39,69.52 -89.31,33.93 -55.32,39.88 -125.52,84.4 -65.64,41.61 -106.76,31.71 -167.07,63.91 -66.74,35.52 -38.43,50.41 -123.87,86.06 -87.79,36.56 -70.76,14.06 -155.64,75.26 -68.34,49.43 -69.44,39.6 -144.15,65.78 -108.84,38.15 -73.46,49.09 -141.59,89.31 -46.18,27.28 -99.98,26.86 -155.71,54.21 -73.94,36.28 -55.39,51.58 -142.91,88.07l-425.81 224.95c-76.37,40.78 -96.1,19.39 -163.12,67.78 -67.99,49.16 -29.98,53.04 -126.35,83.64 -160.84,51.17 -297.44,143.67 -445.12,226.61l-290.31 150.52c-122.13,38.63 -64.53,16.06 -147.61,83.36 -82.95,67.3 -78.44,26.24 -168.18,62.73 -67.57,27.56 -51.03,47.01 -126.29,83.64 -76.37,37.18 -97.97,16.75 -165.48,65.5 -181.26,130.72 -131.13,61.28 -275.63,165.13 -66.74,48.05 -144.98,52.07 -212.7,102.26 -83.57,62.04 -159.52,54.56 -229.66,106.21 -84.81,62.38 -14.12,51.86 -142.97,88 -109.53,30.74 -63.98,13.36 -137.78,72.14 -67.85,54 -76.09,37.74 -158.69,72.22 -73.94,31.02 -72.91,47.63 -130.17,79.76 -56.22,31.5 -103.78,42.03 -155.85,75.05 -142.49,90.22 -182.93,65.15 -289.82,151.07 -69.79,56.01 -58.02,33.44 -147.89,61.97 -101.71,32.33 -63.7,47.29 -140.55,90.42 -55.81,31.3 -89.59,24.65 -148.51,61.34l-438.48 233.33c-62.11,26.52 -80.8,59.75 -124.49,85.44 -80.11,47.15 -92.22,11.56 -172.26,58.71 -46.11,27.14 -62.73,60.93 -125.18,84.68l-294.46 146.43c-83.84,37.59 -62.24,52.28 -140.83,90.08 -79.41,38.29 -72.56,12.32 -146.92,63 -117.57,80.31 -212.83,79.76 -292.59,148.3 -88.42,76.09 -36.77,40.09 -157.31,73.6 -62.73,17.31 -257.35,130.93 -257.35,204.53 0,105.65 173.5,94.23 236.44,141.45 63.98,47.98 22.09,36.91 117.7,71.24 99.7,35.87 143.25,96.59 247.04,130.86 111.4,36.7 144.77,80.52 256.87,120.89 104.62,37.67 137.99,92.57 246.62,131.28 109.39,38.98 139.93,92.5 251.05,126.84 114.38,35.38 130.58,101.09 244.06,133.83 54.77,15.79 15.16,-3.04 63.21,20.84 95.62,47.56 -54.21,-36.56 25.76,16.2l326.24 156.54c108.22,0 237.07,-135.29 323.06,-180.71 107.39,-56.84 69.03,1.39 165.41,-86.61 78.31,-71.66 148.65,-86.27 231.53,-146.3l566.7 -315.1c83.36,-41.47 54.97,-60.79 149.28,-102.61 138.75,-61.55 254.03,-166.31 393.96,-235.82 112.16,-55.67 126.7,-95.06 243.16,-134.73 114.66,-39.05 72.21,-56.43 149.55,-102.4 59.68,-35.59 106.9,-27.76 173.37,-78.44l621.47 -386.27c77.54,-64.94 78.93,-41.61 166.58,-85.37 85.99,-42.79 69.1,-69.24 147.75,-104.06l158.41 -93.54c58.3,-48.26 98.32,-45.91 162.08,-89.87l161.19 -90.77c89.52,-44.87 61.97,-63.07 151.21,-100.74 116.46,-49.23 900.98,-516.92 939.26,-572.24 139.72,-202.24 11.7,-340.78 -34.34,-538.31l179.74 -114.1c121.93,-79.35 272.65,-110.3 398.87,-188.95l189.57 -104.48c89.73,-40.3 83.09,-77.48 186.18,-107.59 67.65,-19.8 56.78,-1.31 115.7,-31.3 46.73,-23.81 40.09,-36.9 80.59,-66.33l483 -251.74c60.37,-40.5 36.63,-20.36 103.99,-43 117.63,-39.74 71.17,-71.11 185.28,-108.63 109.81,-36 105.45,-41.75 194.21,-99.63 79.28,-51.65 120.13,-19.11 206.74,-87.17l380.94 -206.95c82.19,-31.43 106.14,-71.73 189.3,-104.55 128.5,-50.68 109.81,-63.35 201.34,-113.55 115.97,-63.7 94.92,15.09 205.63,-88.21 101.02,-94.23 88.55,-39.46 195.94,-98.04l377.96 -209.85c142.28,-47.64 173.71,-101.92 300.28,-140.55 82.6,-25.2 29.98,-3.88 92.43,-54.56 102.75,-83.36 87.31,-15.99 283.32,-157.51 63.56,-45.91 50.68,-21.54 120.06,-47.84l290.8 -150.11c139.37,-110.99 123.45,-40.85 282.2,-158.69 77.41,-57.4 135.91,-38.22 207.09,-86.82l189.57 -104.27c111.33,-43.07 265.31,-155.71 377,-210.83l212.63 -102.26c81.63,-55.46 129.26,-29.15 207.29,-86.62l566.36 -315.37c39.12,-16.48 72.97,-21.81 108.15,-38.78 55.74,-26.93 35.93,-25.76 84.12,-62.8 83.29,-64.11 124.91,-41.75 204.25,-89.66 48.47,-29.29 24.37,-29.98 86.55,-60.44l892.87 -450.66c111.68,-88.41 74.43,-42.79 199.82,-94.09 76.44,-31.43 65.98,-69.44 182.99,-110.92 91.25,-32.33 95.06,-67.51 186.94,-106.97l195.59 -98.24c103.3,-64.05 100.46,-8.8 210.83,-104.06 113.89,-98.46 115.97,-21.67 209.65,-84.26 105.17,-70.41 12.74,-51.44 184.72,-109.11 85.37,-28.67 279.3,-158.69 374.85,-213.04l399.7 -188.11c109.39,-68.27 39.46,-51.79 191.02,-102.89 90.43,-30.46 294.19,-165.34 394.23,-214.5l190.96 -103.02c83.29,-56.5 128.5,-37.8 204.8,-89.11l196.77 -97.07c83.71,-31.99 82.67,-66.4 185.9,-108.01l191.37 -102.61c97.07,-54.35 191.37,-93.89 260.68,-180.22 42.3,-52.83 19.18,-54.49 106.07,-61.76l0 -252.02c-105.03,-8.72 -73.94,-24.09 -116.31,-114.52 -26.31,-56.22 -51.79,-91.53 -79.69,-151.28 -73.39,-157.17 -151.97,-194.69 -160.77,-301.18z"/>
   <polygon class="fil6" points="30069.02,37157.33 29464.65,36879.35 29122.9,36718.24 28781.84,36553.39 28441.41,36384.8 28101.73,36212.26 27762.96,36036.05 27425.01,35855.96 27087.97,35672 26751.96,35484.09 26417,35292.31 26083.28,35096.58 25750.59,34896.9 25419.22,34693.2 25089.18,34485.5 24760.58,34273.7 24433.23,34057.89 24107.54,33837.93 23783.37,33613.87 23460.87,33385.67 23139.96,33153.38 22820.85,32916.73 22503.46,32676 22188.09,32431.04 21874.52,32181.78 21563.02,31928.17 21253.61,31670.33 20946.26,31408.13 20641.07,31141.57 20338.23,30870.65 20037.6,30595.3 19739.4,30315.58 19445.56,30033.3 19103.81,29702.77 18768.84,29358.31 18447.24,29005.35 18139.34,28643.65 17845.85,28272.69 17567.38,27892.37 17304.48,27502.36 17057.72,27102.38 16827.93,26692.29 16615.58,26271.95 16421.37,25841.09 16245.72,25399.78 16089.52,24947.67 15953.13,24484.96 15837.22,24011.31 15742.23,23526.93 15668.77,23031.54 15617.19,22525.35 15587.9,22008.15 15581.39,21479.81 15598.08,20940.32 15638.24,20389.54 15702.28,19827.34 15790.49,19253.57 15903.28,18667.83 16040.99,18070.11 16204.04,17460.07 16392.64,16837.56 16607.48,16202.18 16848.56,15553.64 17116.58,14891.67 17375.24,14299.49 17415.06,14039.57 17459.23,13706.2 17496.27,13374.97 17526.32,13045.96 17549.44,12719.09 17565.51,12394.37 17574.72,12071.73 17577.07,11751.09 17572.71,11432.47 17561.49,11115.92 17543.56,10801.37 17518.98,10488.77 17487.76,10177.97 17449.95,9869.24 17405.57,9562.31 17354.54,9257.12 17297.22,8953.73 17233.38,8652.2 17163.1,8352.34 17086.46,8054.13 17003.44,7757.67 16914.13,7462.85 16818.51,7169.64 16716.53,6878.08 16608.38,6587.98 16494,6299.47 16373.53,6012.63 16246.76,5727.16 16113.89,5443.15 15974.87,5160.67 15829.81,4879.64 14813.42,3000 17282.33,4051.84 18084.99,4367.98 18896.86,4662.3 19717.38,4934.89 20546.01,5185.73 21381.9,5414.83 22224.58,5622.13 23073.14,5807.61 23927.18,5971.36 24785.78,6113.3 25648.54,6233.35 26514.48,6331.67 27383.26,6408.1 28253.91,6462.66 29126.02,6495.48 29998.68,6506.35 30871.47,6495.48 31743.51,6462.66 32614.23,6408.1 33482.94,6331.67 34348.88,6233.35 35211.57,6113.3 36070.24,5971.36 36924.28,5807.61 37772.84,5622.13 38615.45,5414.83 39451.41,5185.73 40279.97,4934.89 41100.49,4662.3 41912.43,4367.98 42715.02,4051.84 45183.93,3000 44167.54,4879.64 44022.48,5160.67 43883.46,5443.15 43750.66,5727.16 43623.89,6012.63 43503.35,6299.47 43388.97,6587.98 43280.89,6878.08 43178.91,7169.64 43083.22,7462.85 42993.91,7757.67 42910.96,8054.13 42834.25,8352.34 42764.04,8652.2 42700.13,8953.73 42642.81,9257.12 42591.85,9562.31 42547.47,9869.24 42509.67,10177.97 42478.44,10488.77 42453.79,10801.37 42435.93,11115.92 42424.71,11432.47 42420.28,11751.09 42422.63,12071.73 42431.84,12394.37 42447.91,12719.09 42471.03,13045.96 42501.08,13374.97 42538.19,13706.2 42582.36,14039.57 42622.11,14299.49 42880.84,14891.67 43148.86,15553.64 43389.94,16202.18 43604.71,16837.56 43793.31,17460.07 43956.37,18070.11 44094.15,18667.83 44206.93,19253.57 44295.14,19827.34 44359.19,20389.54 44399.34,20940.32 44415.96,21479.81 44409.45,22008.15 44380.23,22525.35 44328.65,23031.54 44255.19,23526.93 44160.2,24011.31 44044.22,24484.96 43907.9,24947.67 43751.63,25399.78 43576.05,25841.09 43381.84,26271.95 43169.49,26692.29 42939.63,27102.38 42692.93,27502.36 42429.97,27892.37 42151.5,28272.69 41858.08,28643.65 41550.11,29005.35 41228.51,29358.31 40893.54,29702.77 40552,30033.09 40258.99,30315.03 39962.52,30594.19 39664.39,30869.06 39364.59,31139.57 39063.07,31405.78 38759.88,31667.63 38455.1,31925.26 38148.66,32178.67 37840.48,32427.71 37530.86,32672.6 37219.57,32913.27 36906.62,33149.78 36592.15,33382.14 36276.15,33610.34 35958.56,33834.46 35639.38,34054.57 35318.54,34270.44 34996.38,34482.31 34672.63,34690.16 34347.36,34894.06 34020.56,35093.94 33692.38,35289.89 33362.68,35481.95 33031.52,35670.06 32698.91,35854.23 32364.91,36034.53 32029.39,36211.01 31692.41,36383.76 31354.12,36552.62 31014.44,36717.75 30673.39,36879.07 "/>
   <path class="fil7" d="M30068.95 36459.85c-3595.94,-1632.32 -7100.15,-3883.83 -10183.67,-6882.74 -3630.91,-3408.93 -5119.77,-7978.14 -1896.25,-15099.89 607.2,-3723.54 -50.33,-7098.14 -1755.84,-10183.67 8571.91,3795.28 18959.06,3795.28 27530.98,0 -1705.51,3085.53 -2362.98,6460.13 -1755.77,10183.67 3223.45,7121.75 1734.58,11690.95 -1896.26,15099.89 -3083.52,2998.92 -6447.24,5250.42 -10043.19,6882.74z"/>
   <path class="fil8" d="M29615.45 30784.8c-981.57,-620.22 -2058.89,-243.3 -3232.45,1130.7 1416.37,297.79 2590.56,113.41 3232.45,-1130.7z"/>
   <path class="fil9" d="M29632.83 30785.97c147.13,-1150.64 -651.59,-1960.36 -2396.28,-2429.44 329.84,1404.46 994.79,2383.95 2396.28,2429.44z"/>
   <path class="fil10" d="M27048.37 30172.61c-786.88,-686.9 -1797.11,-499.13 -3031.04,563.17 1218.22,459.52 2287.85,456.48 3031.04,-563.17z"/>
   <path class="fil11" d="M27063.59 30176c290.24,-1004.28 -307.76,-1834.84 -1794.13,-2491.83 98.66,1295.69 554.24,2259.05 1794.13,2491.83z"/>
   <path class="fil12" d="M24806.2 29208.56c-522.39,-760.15 -1427.8,-819.55 -2716.43,-178.35 941.27,659.34 1856.93,889.97 2716.43,178.35z"/>
   <path class="fil13" d="M24818.53 29214.79c468.67,-797.19 139.31,-1639.18 -988.07,-2526.31 -199.81,1131.74 -21.53,2056.54 988.07,2526.31z"/>
   <path class="fil14" d="M22947.89 27490.66c-154.74,-797.81 -864.97,-1162.07 -2130.76,-1092.9 528.41,862.48 1186.72,1368.95 2130.76,1092.9z"/>
   <path class="fil15" d="M22955.65 27500.07c658.51,-481.89 688.42,-1278.59 89.8,-2390.46 -559.02,846.56 -739.93,1657.52 -89.8,2390.46z"/>
   <path class="fil16" d="M21848.9 25571.83c29.7,-812.63 -579.37,-1327.34 -1827.36,-1544.19 319.46,959.62 845.93,1601.3 1827.36,1544.19z"/>
   <path class="fil17" d="M21854.37 25582.7c749.97,-321.88 959.2,-1091.93 627.7,-2310.5 -735.57,699.84 -1095.05,1449.88 -627.7,2310.5z"/>
   <path class="fil18" d="M21357.04 23379.66c258.6,-739.24 -154.19,-1385.01 -1238.37,-1937.52 20.22,973.19 320.98,1712.43 1238.37,1937.52z"/>
   <path class="fil19" d="M21358.98 23391.22c780.3,-83.98 1191.56,-733.28 1234,-1948.11 -874.6,435.78 -1418.17,1024.15 -1234,1948.11z"/>
   <path class="fil20" d="M21396.02 21500.37c370.28,-672.63 77.06,-1363.76 -879.58,-2073.64 -139.3,943.97 30.46,1707.31 879.58,2073.64z"/>
   <path class="fil21" d="M21395.96 21511.8c767.14,45.42 1270.21,-515.54 1509.36,-1682.8 -915.52,279.3 -1536.36,759.87 -1509.36,1682.8z"/>
   <path class="fil22" d="M21843.15 19520.97c502.66,-497.05 425.74,-1183.39 -230.63,-2059.37 -370.42,796.7 -421.17,1514.62 230.63,2059.37z"/>
   <path class="fil23" d="M21840.11 19531.07c663.77,240.11 1254.09,-123.72 1771.15,-1091.52 -879.79,7.76 -1552.77,269.96 -1771.15,1091.52z"/>
   <path class="fil24" d="M22706.81 18165.38c418.47,-350.27 403.44,-883.25 -45.07,-1599.09 -336.01,589.34 -421.17,1138.39 45.07,1599.09z"/>
   <path class="fil25" d="M22703.83 18173c494.97,227.09 972.29,-15.09 1432.02,-726.64 -676.99,-50.27 -1211.29,108.49 -1432.02,726.64z"/>
   <path class="fil26" d="M23311.25 17240.04c529.04,131.41 953.18,-194.83 1272.64,-978.73 -674.99,76.09 -1170.79,330.88 -1272.64,978.73z"/>
   <path class="fil27" d="M30336.27 30758.49c992.02,-603.26 2062.84,-207.92 3212.58,1186.09 -1421.29,273.35 -2592.15,68.89 -3212.58,-1186.09z"/>
   <path class="fil28" d="M30318.89 30759.32c-127.33,-1153 685.17,-1948.8 2437.69,-2387.83 -353.94,1398.58 -1035.64,2366.51 -2437.69,2387.83z"/>
   <path class="fil29" d="M32949.06 30172.61c786.87,-686.9 1797.11,-499.13 3030.97,563.17 -1218.15,459.52 -2287.79,456.48 -3030.97,-563.17z"/>
   <path class="fil30" d="M32933.76 30176c-290.24,-1004.28 307.83,-1834.84 1794.2,-2491.83 -98.73,1295.69 -554.24,2259.05 -1794.2,2491.83z"/>
   <path class="fil31" d="M35191.22 29208.56c522.39,-760.15 1427.73,-819.55 2716.36,-178.35 -941.27,659.34 -1856.93,889.97 -2716.36,178.35z"/>
   <path class="fil32" d="M35178.89 29214.79c-468.66,-797.19 -139.37,-1639.18 988.01,-2526.31 199.89,1131.74 21.53,2056.54 -988.01,2526.31z"/>
   <path class="fil33" d="M37049.53 27490.66c154.74,-797.81 864.9,-1162.07 2130.69,-1092.9 -528.34,862.48 -1186.71,1368.95 -2130.69,1092.9z"/>
   <path class="fil34" d="M37041.77 27500.07c-658.51,-481.89 -688.42,-1278.59 -89.8,-2390.46 559.02,846.56 739.93,1657.52 89.8,2390.46z"/>
   <path class="fil35" d="M38148.45 25571.83c-29.63,-812.63 579.44,-1327.34 1827.43,-1544.19 -319.53,959.62 -846,1601.3 -1827.43,1544.19z"/>
   <path class="fil36" d="M38143.05 25582.7c-750.04,-321.88 -959.2,-1091.93 -627.7,-2310.5 735.57,699.84 1094.98,1449.88 627.7,2310.5z"/>
   <path class="fil37" d="M38640.31 23379.66c-258.53,-739.24 154.26,-1385.01 1238.44,-1937.52 -20.22,973.19 -320.98,1712.43 -1238.44,1937.52z"/>
   <path class="fil38" d="M38638.44 23391.22c-780.3,-83.98 -1191.56,-733.28 -1234,-1948.11 874.6,435.78 1418.11,1024.15 1234,1948.11z"/>
   <path class="fil39" d="M38601.33 21500.37c-370.28,-672.63 -77.06,-1363.76 879.65,-2073.64 139.24,943.97 -30.53,1707.31 -879.65,2073.64z"/>
   <path class="fil40" d="M38601.4 21511.8c-767.07,45.42 -1270.15,-515.54 -1509.36,-1682.8 915.58,279.3 1536.36,759.87 1509.36,1682.8z"/>
   <path class="fil41" d="M38154.2 19520.97c-502.66,-497.05 -425.74,-1183.39 230.7,-2059.37 370.35,796.7 421.17,1514.62 -230.7,2059.37z"/>
   <path class="fil42" d="M38157.31 19531.07c-663.84,240.11 -1254.15,-123.72 -1771.14,-1091.52 879.72,7.76 1552.7,269.96 1771.14,1091.52z"/>
   <path class="fil43" d="M37290.54 18165.38c-418.4,-350.27 -403.37,-883.25 45.07,-1599.09 336.01,589.34 421.17,1138.39 -45.07,1599.09z"/>
   <path class="fil44" d="M37293.59 18173c-495.04,227.09 -972.36,-15.09 -1432.09,-726.64 677,-50.27 1211.36,108.49 1432.09,726.64z"/>
   <path class="fil45" d="M36686.1 17240.04c-528.97,131.41 -953.11,-194.83 -1272.57,-978.73 674.99,76.09 1170.72,330.88 1272.57,978.73z"/>
   <path class="fil46" d="M27831.15 14638.68c281.24,-114.1 910.26,-240.32 1215.72,-257.7 120.06,-6.86 240.46,-7.48 360.8,-9.76 240.04,-4.64 480.43,-3.81 720.54,-3.53 536.31,0.62 743.95,69.17 1023.67,79.28 88.35,3.26 100.88,-3.19 175.37,19.46 247.45,75.4 389.87,79 451.63,98.45 68.55,21.74 53.87,41.06 133.07,51.37 218.03,28.25 230.14,59.06 426.36,110.02 100.81,26.24 171.64,74.36 285.6,63.35 12.11,-156.13 -53.59,-151.42 -85.3,-261.72 -16.69,-57.88 -23.54,-97 -41.82,-148.58l-58.92 -110.71c-58.85,-73.94 -63.91,-163.88 -103.44,-258.87l-82.39 -183.41c-35.38,-69.86 7.48,37.74 -27.49,-54.21 -0.62,-65.57 155.51,-70.07 49.44,-327.35l-223.91 -495.53c-52.76,-82.6 -119.78,-157.03 -131.27,-257.83l57.33 -16.27c24.72,-4.43 -12.53,19.94 39.67,-2.7 2.15,-110.5 -36,-180.64 -79.62,-253.13 -50.68,-83.84 -57.26,-163.26 -100.53,-240.46l-221 -291.35c-64.6,-63.35 -48.88,-1.94 -60.58,-87.24 107.73,-70.14 91.53,56.15 306.24,62.66 -0.42,-140.35 -60.58,-211.73 -125.04,-285.74 -364.81,-418.74 -360.58,-315.86 -515.05,-453.43 -84.33,-75.19 10.18,-24.44 -99.63,-85.3 -124.21,-68.82 -71.38,-81.01 -254.17,-143.11 -201.27,-68.48 -51.03,-74.15 -260.12,-118.05l-353.52 -123.52c-48.81,-20.36 13.78,-8.65 -70.21,-23.13 -72,-12.32 -102.61,-4.36 -168.8,-24.44 -70.41,-21.26 -64.39,-29.29 -161.6,-44.52 -60.79,-9.56 -112.51,-8.93 -174.06,-16.89l-317.45 -59.2c-260.19,-48.12 -1299.02,8.8 -1609.48,102.54l-233.05 138.75c-61.2,48.54 47.5,27.35 -104.96,68.41 -14.47,116.18 -58.85,130.72 -64.53,229.87 -6.78,118.81 38.98,103.3 43,238.66 -108.77,0.9 -283.73,17.65 -379.9,42.37 -49.36,12.67 0.83,11.56 -88.28,26.03l-246.96 36.28c-226.96,46.25 -472.89,115.14 -671.18,235.47 -128.16,77.69 -235.96,137.57 -298,284.7l-27.97 68.33c-29.43,114.45 -14.12,275.22 27.63,358.57 29.08,57.95 132.04,210.9 192.96,215.61 141.1,-33.86 11.43,-83.22 243.64,-111.68 391.88,-48.26 830.63,-1.24 1215.8,83.36l247.73 73.04c117.43,51.1 115.28,3.81 198.5,125.39 65.78,96.03 175.37,157.51 237.69,255.62 29.15,45.83 23.96,65.36 54.07,117.01 82.94,142.42 98.73,427.12 52.55,592.53 -47.01,168.52 -142.7,176.35 -201.89,290.93l-29.98 65.36c-67.99,140 -191.86,325.9 -283.94,440.07 -2.43,2.98 -6.23,7.06 -8.59,10.11 -2.42,2.91 -5.95,7.27 -8.24,10.31 -2.35,2.98 -5.68,7.48 -7.96,10.59 -2.28,3.11 -5.4,7.76 -7.69,10.87 -47.84,69.24 -60.17,73.53 -60.51,167.9 149.07,27.21 169.98,14.75 290.03,-33.93zm5215.04 290.03c9.2,397.56 739.52,91.88 856.39,0.56l70 -60.44c146.16,-157.51 63.14,-55.32 210.55,-170.81l31.02 -25.41c2.91,-2.63 6.92,-6.44 9.62,-9.14 16.41,-15.58 7.76,-9.83 27.83,-29.08 39.05,-37.53 15.51,-16.2 65.7,-50.61l248.35 -259.08c34.2,-45.56 17.86,-31.43 58.5,-76.3 30.26,-33.58 40.64,-38.36 66.26,-66.4 25.34,-27.97 36.56,-51.86 51.24,-78.44 46.67,-84.54 127.33,-159.24 185.48,-233.67l38.57 -54c52.62,-84.54 92.02,-121.51 135.56,-223.15 39.95,-93.26 77.75,-165.06 147.89,-237.48 82.88,-85.44 141.94,-192.55 222.67,-287.81 20.56,-24.23 40.92,-54.35 58.37,-74.08 36.35,-41.2 39.05,-27.42 69.58,-63.49 39.95,-47.22 12.6,-29.49 42.17,-71.87 42.51,-61 541.64,-446.85 617.87,-498.78 3.46,-2.35 8.03,-5.54 11.49,-7.96 153.5,-110.36 135.7,-80.73 235.41,-145.46l242.12 -153.22c0.48,-0.28 36.97,-19.8 37.39,-20.01l34.55 -23.61c96.03,-67.09 234.85,-125.8 348.81,-160.84l332.27 -159.59c127.19,-51.03 240.46,-102.47 376.85,-137.16l456.75 -134.32c9.35,-4.64 -0.2,-4.71 41.27,-17.93l1089.37 -369.03c375.13,-177.8 156.13,-85.51 365.71,-219.76 44.24,-28.46 43.83,-18.21 92.15,-41.2 78.86,-37.59 205.36,-160.07 280.55,-211.1 67.57,-45.9 75.81,-60.1 136.74,-110.02 68.47,-55.94 90.84,-52.62 151.21,-114.66l610.87 -739.86c4.57,-3.46 30.95,-18.48 35.59,-21.32 128.85,-81.91 1.04,-74.02 108.43,-246.07 44.11,-70.56 62.04,-81.91 90.22,-169.63 47.91,-149.2 175.72,-438.27 201.34,-554.31 10.11,-45.63 4.85,-70.76 18.63,-117.56 37.8,-128.43 60.1,-97.48 79.41,-292.94 8.38,-85.44 -4.57,-162.36 16.13,-236.37 28.87,-102.89 44.04,-52.27 44.17,-193.65 0.07,-121.17 -10.18,-135.36 -116.94,-134.94l-230.77 506.05c-36.97,88.2 -87.65,216.71 -154.12,287.33 -91.6,97.28 -56.02,69.58 -114.93,187.43 -31.37,62.8 -80.04,86.48 -115.56,130.85l-236.09 276.46c-78.31,82.6 -167.14,167.13 -266.35,228.83 -62.59,38.91 -90.07,54.49 -149.2,96.65l-160.77 90.28c-84.95,38.01 -163.74,100.53 -257.56,125.39 -187.35,49.64 -158.55,132.17 -445.19,177.52 -36,5.68 -84.95,13.71 -104.96,24.03 -21.6,11.22 1.8,1.45 -30.81,22.92 -70,46.04 -358.85,91.67 -446.99,107.73 -85.23,15.65 -142.07,-7 -221.63,23.54 -3.88,1.52 -8.59,4.15 -12.46,5.75l-596.06 126.7c-60.31,10.18 -153.29,6.93 -208.68,35.1 -52.55,26.66 -13.71,29.29 -82.39,48.47 -110.16,30.81 -381.77,67.09 -489.09,119.5 -11.7,5.75 -32.96,28.73 -79.97,50.27 -189.29,86.89 -418.46,143.25 -587.13,265.45 -53.24,38.56 -112.99,51.51 -175.17,90.98 -39.39,25 -51.86,29.15 -85.57,48.05 -129.26,72.35 -223.15,172.95 -347.15,259.08 -150.38,104.41 -301.8,315.37 -372.08,368.34l-253.61 312.81c-7.41,12.19 -14.06,25.34 -20.08,36.42 -25.2,46.53 -16,33.86 -42.03,72.98l-41.61 54.7c-2.5,2.98 -6.51,6.93 -9,9.83l-50.13 77.61c-29.63,69.72 -49.3,92.02 -84.89,163.54l-158.96 335.59c-26.93,43.55 -21.67,-0.21 -53.11,77.27l-181.4 446.78c-23.26,93.95 -35.87,26.24 -69.31,119.92 -69.93,196.22 -86.2,144.43 -162.7,270.85l-82.39 163.26c-22.71,68.27 3.19,23.61 -34.06,83.36 -36.21,57.95 -14.89,9.49 -51.72,79.83l-138.33 221.91c-80.66,150.24 -218.23,284.01 -318.35,421.09 -80.73,110.5 -162.08,153.64 -246.41,246 -143.32,156.82 -354.56,336.42 -565.31,405.59zm-14164.02 -6215.02c-22.57,-28.8 -31.78,-40.99 -48.67,-65.15 -79.28,-113.55 -104.62,-211.38 -234.85,-223.29 -1.94,-127.81 9.97,-97.14 -49.57,-174.89 -70.28,-91.6 -100.94,-224.53 -172.68,-313.36 -45.83,-56.7 3.88,-30.88 -76.23,-59.75 0.48,72.77 -1.87,194.48 11.01,263.24 41.75,223.29 171.22,785.35 250.85,949.37l146.5 327.56c43.27,61.55 67.09,58.85 107.11,136.39l338.98 516.16c95.76,101.36 170.88,212.9 281.59,305.75 181.95,152.25 194.9,134.25 271.27,203.35 85.23,77.13 199.89,145.54 311.7,187.43l453.08 243.92c4.3,2.22 8.86,4.85 13.43,6.85l123.87 45.42c153.43,97.83 -123.45,-56.36 34.96,23.68 42.37,21.39 126.15,37.67 172.67,55.11 77.13,28.74 103.23,49.78 190.4,61.9 91.74,12.81 104.89,16.41 177.59,46.11 137.78,56.22 171.29,101.91 354.15,121.58 132.31,14.12 227.72,82.94 338.71,129.75l353.52 120.82c63.42,45.07 -17.59,20.08 67.57,60.51l273.69 91.6c88.69,34.34 43,33.93 121.3,67.16l443.11 202.59c75.26,49.71 3.05,-5.19 55.11,55.8 37.04,43.28 142.35,85.09 196.35,127.26l645.28 453.02c53.87,42.72 66.54,81.56 117.7,129.06l115.9 112.09c61,65.43 86.48,51.03 132.72,115.49l76.02 111.89c148.24,156.61 162.43,241.22 220.93,309.9l104.48 144.64c23.06,32.54 31.64,30.32 55.67,52.96l336.56 502.73 332.27 367.71c77.41,90.22 169.21,141.45 261.02,211.73 46.25,35.38 80.45,79.55 132.73,112.09l477.94 224.95c107.59,55.32 344.8,-0.62 369.17,-78.38 25.69,-82.04 -151.7,-147.2 -308.24,-285.74 -139.09,-122.96 -154.05,-159.66 -309.28,-277.16 -89.38,-67.64 -127.12,-205.77 -203.48,-270.85l-112.72 -134.67c-47.57,-57.4 -20.15,-0.35 -56.57,-76.44l-127.6 -213.52c-71.25,-88.14 -73.67,-149.55 -118.26,-245.72l-42.02 -70.28c-141.24,-228.83 -248.77,-486.18 -292.32,-560.13l-51.79 -60.17c-75.12,-76.71 -122.07,-214.08 -161.88,-309.21l-154.74 -320.22c-115.07,-207.99 -198.29,-427.47 -331.02,-620.85 -37.46,-54.63 -69.24,-90.7 -103.16,-145.05l-351.58 -345.7c-115.7,-78.24 -158.28,-147.13 -257.42,-216.43 -129.13,-90.43 -245.37,-178.28 -382.81,-242.4 -65.01,-30.26 -26.86,-7.76 -71.11,-44.59 -53.52,-44.66 -68.41,-52.69 -140.34,-82.18 -128.64,-52.83 -248.97,-70.35 -357.95,-123.24 -134.67,-65.22 -341.34,-121.72 -499.41,-165.75 -69.3,-19.31 -174.82,-15.3 -234.09,-48.74 -108.35,-61.14 16.69,-44.8 -172.89,-69.86l-993.34 -184.03c-132.24,-31.15 -295.43,-47.29 -417.29,-80.24 -59.96,-16.13 -41.26,-11.35 -86.55,-40.16 -69.3,-44.1 -182.02,-68.75 -251.26,-92.43 -29.01,-9.97 -69.24,-17.38 -102.12,-30.81 -13.43,-5.47 -46.11,-23.06 -78.79,-35.17 -49.92,-18.42 -40.92,-8.59 -81.84,-31.5 -92.36,-51.72 -137.92,-58.09 -226.96,-131.13 -62.8,-51.51 -88.21,-36.14 -150.87,-79.55l-94.79 -91.94c-65.7,-56.36 -74.7,-84.61 -154.26,-131.34 -146.92,-86.41 -244.27,-257.28 -354.56,-365.57 -19.11,-18.76 -28.67,-30.67 -51.65,-59.96zm426.84 2493.21c-153.29,-123.24 -163.88,-166.17 -277.78,-292.66 -184.93,-205.56 -221.42,-393.2 -354.15,-402.75 -5.13,153.57 30.26,220.8 69.24,326.59l86.48 294.88 431.34 742.91 176.9 203c49.57,61.76 109.26,89.24 162.84,139.72 94.37,88.83 279.23,244.06 393.06,290.87 63,25.82 64.94,32.47 117.08,71.59l244.06 132.45c612.4,237.07 827.44,185.69 1254.98,301.11 161.32,43.55 310.04,43.34 467.76,102.75 54.49,20.49 416.74,65.5 617.59,160.91 70.56,33.44 41.89,26.1 138.48,52.48 119.85,32.68 240.32,110.22 334.34,152.67l326.93 167.35c53.18,28.04 75.95,51.17 117.36,71.87l342.65 248.91c33.85,39.61 48.05,47.43 99.01,87.45 176.62,138.96 184.93,181.67 339.67,343.48l218.09 256.52c75.89,76.78 141.8,114.93 202.17,197.11 90.28,123.04 247.8,195.53 359.75,284.7 3.05,2.43 7.34,6.23 10.31,8.66 65.29,53.31 111.06,53.1 191.17,110.02l281.24 95.13c171.29,28.8 266.84,102.47 438.69,-1.87 198.98,-120.81 -84.68,-148.23 -176.56,-198.29l-24.02 -14.4c-152.18,-95.82 -91.32,-35.52 -240.67,-158.14 -179.67,-147.68 -389.39,-287.4 -520.8,-484.17l-336.91 -439.38c-80.04,-77.2 -108.29,-171.7 -172.68,-265.24l-59.82 -91.81c-14.26,-18.35 -24.65,-28.25 -42.65,-51.51 -83.64,-108.29 -109.74,-222.11 -178.84,-315.58l-131.48 -150.17c-14.19,-14.06 -6.65,-4.15 -28.59,-28.73 -2.7,-2.98 -6.23,-7.34 -8.86,-10.39 -81.7,-95.89 -127.33,-225.78 -222.94,-306.93l-135.36 -131.07c-53.87,-49.99 -61.69,-34.69 -110.57,-79.2 -239.83,-218.79 -248.91,-173.44 -493.59,-322.5l-657.4 -248.63c-665.57,-180.98 -1693.04,-91.94 -2123.14,-213.67l-592.04 -239.28c-28.25,-18.35 -17.66,-10.8 -34.69,-23.26 -40.85,-29.63 -5.19,-9.14 -52.48,-41.27 -55.67,-37.8 -70.69,-26.17 -127.67,-61.62 -42.79,-26.8 -64.94,-55.18 -106.69,-83.43 -223.63,-151.76 -131.34,-123.24 -210.83,-187.15zm17437.31 2279.76c24.86,-117.77 1.52,-73.11 129.06,-108.63 80.38,-22.36 83.91,-36.35 171.64,-55.32l804.39 -239.56c28.59,-6.37 71.17,-8.65 102.89,-12.95 147.61,-20.35 250.01,-67.78 402.26,-75.12 89.39,-4.36 135.01,-9.9 210.69,-19.39l1222.51 -404.62c71.52,-41.89 -4.09,-13.57 65.77,-47.08l344.18 -226.61c98.8,-61.9 152.87,-171.01 232.57,-240.87 46.18,-40.5 18.48,2.77 64.74,-50.89 28.87,-33.58 26.59,-50.68 43.27,-71.45 47.57,-59.06 60.65,-16 114.93,-112.93l270.3 -430.58c29.56,-49.44 42.44,-99.91 72.77,-155.44 50.96,-93.47 30.26,-52.28 61.83,-168.87l71.52 -152.53c25.62,-82.39 70.07,-187.42 74.5,-272.31 1.52,-27.76 1.59,-25.48 -3.67,-51.65 -9.07,-45.97 -1.11,-19.87 -20.35,-46.8 -71.8,19.59 -21.74,-5.75 -72.28,47.63 -52.76,55.67 -58.09,112.02 -110.02,173.99 -35.8,42.79 -52.34,48.74 -85.78,102.89l-302.29 362.11 -372.43 290.59 -821.08 321.26c-62.93,11.22 -134.8,1.39 -201.41,9.97 -49.02,6.37 -98.59,22.57 -158.9,27.56 -265.87,21.81 -1243.91,59.75 -1419.42,101.02 -95.83,22.57 -197.88,60.37 -288.37,85.3 -151.28,41.82 -280.69,44.04 -412.03,117.91 -88.21,49.71 -146.51,40.71 -236.17,104.13l-185.69 101.02c-39.12,23.61 -80.18,53.59 -112.37,76.02l-422.76 338.91c-137.16,94.3 -295.78,378.52 -413.2,530.07 -80.94,104.48 -125.46,248.7 -218.93,350.41l-381.56 567.05c-30.88,34.96 -58.43,61 -87.65,99.84l-166.72 213.94c-140.48,156.75 -333.79,328.6 -512.14,438.34 -6.3,3.88 -58.09,35.38 -58.23,35.52 -124.56,97.76 -282.42,155.85 -422.55,231.46 -7.89,224.88 309.14,161.04 420.68,121.65 90.98,-32.06 154.88,-22.43 254.37,-68.69 91.46,-42.51 114.87,-85.78 194.14,-124.42 92.7,-45.35 124.9,-57.46 210.41,-112.65 340.02,-219.34 808.82,-843.3 964.46,-968.28 88.97,-71.38 78.38,-111.19 149.07,-171.29l329.29 -238.87c53.93,-35.52 117.7,-42.24 169.28,-78.52 72.77,-51.37 1.52,-35.24 81.42,-66.4l253.06 -75.88zm-2408.95 2248.67c347.57,40.57 504.59,-90.84 711.96,-205.84 171.22,-95.13 512,-400.88 686.69,-528.41l479.39 -223.29c207.85,-53.38 82.53,-32.61 171.7,-71.1l415.56 -93.89c152.94,-11.5 328.6,-19.18 462.15,-54.35 189.16,-49.85 1056.2,32.19 1492.81,-177.11 57.12,-27.35 110.99,-29.91 271.13,-110.5l93.54 -42.44c90.5,-43 191.72,-133.97 256.39,-209.79 2.91,-3.32 6.72,-7.48 9.69,-10.66l66.67 -67.09c3.32,-2.91 7.2,-7 10.8,-9.83 45.9,-36.07 55.39,-20.15 83.43,-47.56 23.4,-22.64 16.62,-34 35.17,-72.22 60.09,-123.31 145.4,-118.05 205.77,-304.02 20.35,-62.52 -2.01,-3.88 25.41,-55.39 24.44,-45.63 4.64,3.53 19.45,-34.13l75.54 -308.31c-95.06,4.09 -49.57,-6.85 -96.03,34.2 -55.67,49.09 31.71,-31.71 -18.21,19.66 -99.49,102.26 -58.5,99.15 -170.39,190.26l-284.01 228.2c-361.35,273.28 -1024.01,260.26 -1458.68,209.23 -104.69,-12.33 -24.3,-12.05 -101.02,-25.83 -67.92,-12.11 -157.86,-3.11 -234.71,-13.09 -321.05,-41.68 -467.07,19.39 -726.98,27.49 -95.96,3.05 -124.28,22.99 -204.8,41.41 -244.82,55.59 -125.94,45.14 -243.3,92.98 -32.06,13.08 -4.02,2.15 -46.32,13.91 -46.87,12.95 -65.08,12.39 -93.13,34.69 -46.8,36.9 -7.55,22.3 -62.52,67.65 -71.8,59.41 -291.76,195.66 -368.06,277.71 -112.16,120.68 -246.2,237.69 -368.75,389.18 -26.93,33.3 -28.39,38.36 -59.82,73.53 -24.51,27.62 -38.35,46.18 -61.55,70.96 -19.45,20.84 -20.15,21.81 -41.75,37.32 -156.34,112.23 -4.36,20.7 -164.78,155.51l-66.26 65.29c-253.96,268.78 -89.24,69.86 -269.19,241.91 -59.33,56.7 -97.14,48.46 -160.14,88.76 -29.36,18.91 -19.04,16.55 -38.98,34.76l-19.11 18.56c-3.26,2.42 -7.55,5.95 -11.01,8.1 -28.46,18.14 -123.66,36.35 -259.98,120.26 4.08,63.22 21.46,78.38 56.22,123.31zm-13500.04 -2005.3c-170.32,-44.87 -334.2,-164.71 -463.13,-272.24 -35.65,-29.77 -164.23,-194.35 -308.45,-211.86 7.48,183.61 11.29,98.59 80.59,209.58 65.7,105.1 133.76,241.84 218.37,317.17 55.18,49.16 71.38,59.41 111.61,129.06 112.79,194.83 298.69,282.14 476.9,398.8 58.16,38.08 28.52,35.11 110.78,57.95 181.19,50.27 119.92,48.67 187.77,76.71 50.48,20.91 146.85,33.37 210.2,55.32 258.25,89.24 673.12,72.97 949.3,73.32 125.67,0.14 137.71,0.63 240.25,24.86 382.81,90.56 522.74,-40.37 1161.93,263.52 15.02,7.13 30.12,12.19 49.85,22.36l26.72 16.2c56.91,36 95.2,38.77 174.69,71.24 134.39,54.97 153.08,99.49 301.25,211.17 97.28,73.11 189.36,174.41 287.06,243.09l311.22 203.41c152.81,144.78 489.57,175.65 598.2,105.45 92.36,-59.68 79.35,-83.85 76.72,-137.5 -140.9,-21.26 -419.92,-179.88 -503.84,-254.44 -85.92,-76.37 -23.81,2.43 -129.61,-119.09 -46.18,-53.04 -99.77,-56.15 -159.17,-103.37l-441.52 -429.75c-35.24,-50.68 -0.21,-26.1 -52.34,-82.32 -44.04,-47.56 -78.65,-61.96 -128.64,-116.11 -35.24,-38.22 -73.18,-88.28 -110.22,-137.16 -72.15,-95.55 -41.89,-51.93 -131.89,-116.46 -48.54,-34.76 -34.13,-42.17 -107.46,-82.67 -188.67,-104.06 -271.96,-236.37 -517.54,-278.89 -311.84,-53.94 -53.52,-8.59 -209.86,-54.98 -98.52,-29.22 -605.68,-31.78 -716.87,-29.56 -173.16,3.39 -338.85,18.97 -492.62,22.57 -179.26,4.09 -256.39,38.5 -455.58,39.19 -137.64,0.62 -339.12,-20.29 -466.65,-46.32 -70.14,-14.26 -82.94,-43.13 -178.01,-68.27zm7106.31 -2193.97c-105.24,-97.63 -201.69,-199.89 -423.87,-236.79 131.28,-61.76 262.48,-67.85 393.82,-3.46 181.19,-141.24 364.94,-272.52 629.22,-104.62 -197.74,20.29 -268.02,149 -338.43,277.57 -102.47,186.87 -96.24,220.1 -260.75,67.3z"/>
   <path class="fil47" d="M29998.68 17630.25c2291.87,0 4150.46,1858.59 4150.46,4150.46 0,2291.87 -1858.59,4150.46 -4150.46,4150.46 -2291.8,0 -4150.46,-1858.59 -4150.46,-4150.46 0,-2291.87 1858.66,-4150.46 4150.46,-4150.46z"/>
   <path class="fil48" d="M26265.02 19140.03l-1302.34 -390.36 127.6 -196.42 957.2 299.24 -667.44 -745.47 125.11 -192.61 885.95 1031.48 -126.08 194.14zm422.41 -573.63l-938.57 -906.38 149.62 -154.95 938.57 906.37 -149.62 154.95zm-19.73 -604.16l150.66 -149.69c121.3,116.87 234.02,134.8 337.94,53.59 51.24,-40.02 81.22,-84.95 89.52,-135.08 8.72,-49.99 -2.63,-94.65 -33.72,-134.46 -18.28,-23.47 -38.84,-39.39 -61.9,-47.63 -23.2,-8.44 -49.44,-9.56 -78.72,-3.6 -29.35,5.95 -93.74,28.18 -194.14,66.4 -89.73,34.69 -161.39,52.55 -215.12,52.83 -53.73,0.83 -106.9,-12.05 -159.52,-38.43 -52.62,-26.31 -97.55,-63.7 -135.15,-111.82 -43.83,-56.08 -70.55,-116.39 -80.38,-181.26 -9.35,-64.81 -0.69,-126.29 26.1,-184.24 27.21,-57.88 73.53,-112.65 139.58,-164.23 99.15,-77.48 197.46,-111.06 295.09,-100.6 97.63,10.11 187.35,64.19 268.64,161.81l-163.12 142.07c-50.89,-49.37 -97,-75.33 -139.17,-77.89 -41.61,-2.56 -85.65,14.13 -131.41,49.85 -45.7,35.73 -73.74,72.98 -83.43,111.4 -9.9,38.63 -3.81,72.08 18.63,100.74 21.88,28.04 51.51,42.72 88.97,44.31 37.59,1.8 105.65,-17.79 204.25,-57.88 105.24,-42.02 187.35,-64.18 246.69,-66.61 59.41,-2.49 116.32,10.18 170.11,37.53 53.94,27.63 104.96,72.21 153.22,133.97 69.79,89.31 100.74,185.76 93.47,289.41 -7.61,103.79 -69.79,201.34 -186.59,292.59 -206.6,161.39 -413.62,133.83 -620.5,-83.08zm1096.43 -314.61l-530.7 -1191.98 196.77 -87.65 208.82 469.01 387.17 -172.33 -208.82 -469.01 197.6 -88 530.7 1192.05 -197.6 87.93 -232.08 -521.22 -387.1 172.33 232.01 521.28 -196.77 87.58zm1261.28 -472.4l-644.8 -1196.89 229.11 -48.74 465.27 888.51 55.11 -999.08 224.6 -47.78 -102.89 1355.86 -226.4 48.12zm1569.04 -121.09l-234.85 0 -93.61 -296.54 -427.12 0 -88.14 296.54 -229.66 0 416.53 -1304.83 228.76 0 428.09 1304.83zm-397.7 -516.16l-147.06 -484.31 -144.91 484.31 291.97 0zm665.92 602.08l-78.65 -1357.31 228.27 52.69 46.18 1001.85 472.19 -882.15 223.78 51.65 -666.26 1185.33 -225.5 -52.06zm683.78 205.98l467.62 -1218.15 201.07 77.2 -467.63 1218.15 -201.06 -77.2zm395.55 147.27l672.08 -1118.45 389.8 234.23c99.77,59.89 164.99,112.93 195.67,158.62 30.67,45.69 44.87,101.71 42.51,167.62 -2.29,66.33 -24.51,133.9 -65.91,202.86 -52.62,87.52 -115.83,145.54 -189.85,173.78 -74.22,27.97 -154.06,25.76 -239.28,-7.06 22.36,52.48 36.56,103.17 41.96,152.53 5.75,49.5 4.71,131.41 -3.05,245.93l-20.01 284.98 -220.24 -132.38 11.91 -324.24c4.57,-116.73 4.92,-191.65 0.76,-224.26 -3.88,-32.4 -13.3,-58.64 -27.42,-78.86 -14.26,-19.8 -42.79,-42.72 -85.44,-68.33l-38.29 -22.99 -280.55 466.93 -184.65 -110.92zm572.59 -534.65l137.5 82.6c83.85,50.41 139.37,78.86 166.65,85.3 27.28,6.44 54.7,2.77 82.46,-11.01 27.56,-13.98 52.83,-39.53 75.06,-76.57 21.46,-35.66 31.36,-68.61 30.32,-98.73 -1.38,-30.19 -11.7,-56.63 -31.3,-79.41 -13.78,-16.06 -62.52,-48.88 -145.33,-98.59l-145.05 -87.17 -170.32 283.59zm1033.5 1793.65l-171.78 -160.15 133.83 -280.76 -312.39 -291.28 -266.7 156.75 -167.97 -156.61 1194.54 -670.21 167.28 155.99 -576.81 1246.26zm61.2 -648.75l222.74 -454.47 -436.33 255.34 213.59 199.13zm45.28 881.11l898.69 -606.1 -177.73 -263.52 183.13 -123.45 475.31 704.69 -183.13 123.52 -177.11 -262.68 -898.69 606.17 -120.47 -178.63z"/>
   <polygon class="fil49" points="24903.28,20015.31 25118.67,20542.48 25686.69,20584.51 25251.81,20952.3 25387.44,21505.5 24903.28,21205.56 24419.04,21505.5 24554.67,20952.3 24119.79,20584.51 24687.81,20542.48 "/>
   <path class="fil50" d="M33618.78 19157.61l0 184.72c-244.13,38.98 -462.78,169.49 -654.29,391.53 -138.96,166.1 -345.77,554.31 -620.36,1167.88l-2320.46 5144.35 -162.7 0 -2310.29 -5352.82c-277.99,-645.84 -464.44,-1025.46 -557.7,-1137.35 -94.93,-113.55 -272.86,-184.8 -533.89,-213.59l0 -184.72 3227.26 0 0 184.72 -108.5 0c-291.56,0 -489.85,35.59 -596.61,108.49 -76.3,49.16 -113.55,122.06 -113.55,218.65 0,59.33 13.5,130.51 38.98,211.86 27.07,79.69 116.94,298.34 267.81,652.63l1435.62 3350.98 1330.59 -2983.2c159.38,-361.07 257.63,-603.4 293.29,-725.46 37.25,-122.06 54.21,-227.17 54.21,-313.57 0,-98.32 -25.41,-186.46 -79.69,-262.76 -52.55,-76.23 -130.51,-133.9 -232.22,-172.88 -142.35,-57.61 -332.2,-84.74 -566.08,-84.74l0 -184.72 2208.58 0z"/>
   <polygon class="fil49" points="35060.43,20015.31 35275.89,20542.48 35843.84,20584.51 35409.04,20952.3 35544.6,21505.5 35060.43,21205.56 34576.26,21505.5 34711.82,20952.3 34277.02,20584.51 34844.96,20542.48 "/>
  </g>
 </g>
</svg>
